<?xml version="1.0" encoding="UTF-8" standalone="no"?>
<!-- Created with Inkscape (http://www.inkscape.org/) -->

<svg
   width="297mm"
   height="210mm"
   viewBox="0 0 297 210"
   version="1.1"
   id="svg5"
   inkscape:version="1.1.2 (b8e25be833, 2022-02-05)"
   sodipodi:docname="radiation.svg"
   xmlns:inkscape="http://www.inkscape.org/namespaces/inkscape"
   xmlns:sodipodi="http://sodipodi.sourceforge.net/DTD/sodipodi-0.dtd"
   xmlns="http://www.w3.org/2000/svg"
   xmlns:svg="http://www.w3.org/2000/svg">
  <sodipodi:namedview
     id="namedview7"
     pagecolor="#505050"
     bordercolor="#eeeeee"
     borderopacity="1"
     inkscape:pageshadow="0"
     inkscape:pageopacity="0"
     inkscape:pagecheckerboard="0"
     inkscape:document-units="mm"
     showgrid="false"
     inkscape:snap-page="true"
     inkscape:snap-bbox="true"
     inkscape:zoom="0.63606902"
     inkscape:cx="613.92708"
     inkscape:cy="356.09343"
     inkscape:window-width="1920"
     inkscape:window-height="991"
     inkscape:window-x="-9"
     inkscape:window-y="-9"
     inkscape:window-maximized="1"
     inkscape:current-layer="layer1" />
  <defs
     id="defs2" />
  <g
     inkscape:label="Layer 1"
     inkscape:groupmode="layer"
     id="layer1">
    <rect
       style="opacity:1;fill:#fdc401;stroke:none;stroke-width:7.70001;fill-opacity:1"
       id="rect846"
       width="297"
       height="210"
       x="0"
       y="0" />
    <rect
       style="opacity:1;fill:#ae0001;fill-opacity:1;stroke:none;stroke-width:9.40366"
       id="rect1222"
       width="264.97058"
       height="50.534534"
       x="12.478991"
       y="8.6339893" />
    <path
       id="path8221"
       style="fill:#ae0001;fill-opacity:1;stroke-width:21.8555"
       d="m 169.52056,65.890889 -14.68888,25.442066 a 12.568255,12.568255 0 0 1 6.2839,10.884655 l 29.28343,-4.3e-4 A 41.946331,41.946331 0 0 0 169.52056,65.890889 Z m -41.89903,0.08194 a 41.946331,41.946331 0 0 0 -21.02058,36.244331 h 29.37819 a 12.568255,12.568255 0 0 1 0.19082,-2.18256 12.568255,12.568255 0 0 1 6.09351,-8.701662 z m 20.92583,27.928138 a 8.3163836,8.3163836 0 0 0 -8.3162,8.316193 8.3163836,8.3163836 0 0 0 8.3162,8.31663 8.3163836,8.3163836 0 0 0 8.31663,-8.31663 8.3163836,8.3163836 0 0 0 -8.31663,-8.316193 z m -6.28432,19.200433 -14.64151,25.36052 a 41.946331,41.946331 0 0 0 41.89903,0.082 L 154.83125,113.1018 a 12.568255,12.568255 0 0 1 -12.56821,-4.2e-4 z" />
    <text
       xml:space="preserve"
       style="font-size:35.0029px;font-family:monospace;-inkscape-font-specification:monospace;opacity:1;fill:#fdc401;fill-opacity:1;stroke:none;stroke-width:5.09335"
       x="53.978966"
       y="47.900982"
       id="text5725"><tspan
         sodipodi:role="line"
         id="tspan5723"
         style="font-style:normal;font-variant:normal;font-weight:bold;font-stretch:normal;font-size:35.0029px;font-family:Arial;-inkscape-font-specification:'Arial Bold';fill:#fdc401;fill-opacity:1;stroke-width:5.09334"
         x="53.978966"
         y="47.900982">VAROVÁNÍ</tspan></text>
    <rect
       style="opacity:1;fill:#ae0001;fill-opacity:1;stroke:none;stroke-width:8.81168"
       id="rect20164"
       width="264.97058"
       height="44.372272"
       x="12.478991"
       y="153.55966" />
    <text
       xml:space="preserve"
       style="font-size:25.4974px;font-family:monospace;-inkscape-font-specification:monospace;opacity:1;fill:#fdc401;fill-opacity:1;stroke:none;stroke-width:3.71019"
       x="23.627527"
       y="187.10634"
       id="text20168"><tspan
         sodipodi:role="line"
         id="tspan20166"
         style="font-style:normal;font-variant:normal;font-weight:bold;font-stretch:normal;font-size:25.4974px;font-family:Arial;-inkscape-font-specification:'Arial Bold';fill:#fdc401;fill-opacity:1;stroke-width:3.71018"
         x="23.627527"
         y="187.10634">ZVÝŠENÁ RADIACE</tspan></text>
  </g>
</svg>
