<?xml version="1.0" encoding="UTF-8" standalone="no"?>
<!-- Created with Inkscape (http://www.inkscape.org/) -->

<svg
   width="210mm"
   height="297mm"
   viewBox="0 0 210 297"
   version="1.1"
   id="svg5"
   sodipodi:docname="scheme.svg"
   inkscape:version="1.1.2 (b8e25be833, 2022-02-05)"
   xmlns:inkscape="http://www.inkscape.org/namespaces/inkscape"
   xmlns:sodipodi="http://sodipodi.sourceforge.net/DTD/sodipodi-0.dtd"
   xmlns:xlink="http://www.w3.org/1999/xlink"
   xmlns="http://www.w3.org/2000/svg"
   xmlns:svg="http://www.w3.org/2000/svg">
  <sodipodi:namedview
     id="namedview7"
     pagecolor="#505050"
     bordercolor="#eeeeee"
     borderopacity="1"
     inkscape:pageshadow="0"
     inkscape:pageopacity="0"
     inkscape:pagecheckerboard="0"
     inkscape:document-units="mm"
     showgrid="false"
     inkscape:snap-page="false"
     inkscape:snap-smooth-nodes="true"
     inkscape:snap-bbox="true"
     inkscape:bbox-paths="true"
     inkscape:bbox-nodes="true"
     inkscape:zoom="0.89953744"
     inkscape:cx="363.52017"
     inkscape:cy="904.35369"
     inkscape:window-width="1920"
     inkscape:window-height="991"
     inkscape:window-x="-9"
     inkscape:window-y="-9"
     inkscape:window-maximized="1"
     inkscape:current-layer="layer1"
     inkscape:object-paths="true"
     inkscape:snap-global="false" />
  <defs
     id="defs2">
    <inkscape:path-effect
       effect="knot"
       id="path-effect21396"
       is_visible="true"
       lpeversion="1"
       switcher_size="15"
       interruption_width="9.7"
       prop_to_stroke_width="true"
       add_stroke_width="inkscape_1.0_and_up"
       both="false"
       inverse_width="false"
       add_other_stroke_width="inkscape_1.0_and_up"
       crossing_points_vector="" />
    <inkscape:path-effect
       effect="skeletal"
       id="path-effect21394"
       is_visible="true"
       lpeversion="1"
       pattern="#path16053"
       copytype="repeated_stretched"
       prop_scale="0.73"
       scale_y_rel="false"
       spacing="-5.1"
       normal_offset="0"
       tang_offset="0"
       prop_units="false"
       vertical_pattern="false"
       hide_knot="false"
       fuse_tolerance="0" />
    <inkscape:path-effect
       effect="skeletal"
       id="path-effect21388"
       is_visible="true"
       lpeversion="1"
       pattern="#path16053"
       copytype="repeated_stretched"
       prop_scale="0.73"
       scale_y_rel="false"
       spacing="-5"
       normal_offset="0"
       tang_offset="0"
       prop_units="false"
       vertical_pattern="false"
       hide_knot="false"
       fuse_tolerance="0" />
    <inkscape:path-effect
       effect="knot"
       id="path-effect21222"
       is_visible="true"
       lpeversion="1"
       switcher_size="0.3"
       interruption_width="1"
       prop_to_stroke_width="true"
       add_stroke_width="inkscape_1.0_and_up"
       both="false"
       inverse_width="false"
       add_other_stroke_width="inkscape_1.0_and_up"
       crossing_points_vector="" />
    <inkscape:path-effect
       effect="skeletal"
       id="path-effect21218"
       is_visible="true"
       lpeversion="1"
       pattern="#path16053"
       copytype="repeated_stretched"
       prop_scale="0.73"
       scale_y_rel="false"
       spacing="-5"
       normal_offset="0"
       tang_offset="0"
       prop_units="false"
       vertical_pattern="false"
       hide_knot="false"
       fuse_tolerance="0" />
    <inkscape:path-effect
       effect="skeletal"
       id="path-effect17084"
       is_visible="true"
       lpeversion="1"
       pattern="#path16053"
       copytype="repeated_stretched"
       prop_scale="0.73"
       scale_y_rel="false"
       spacing="-5"
       normal_offset="0"
       tang_offset="0"
       prop_units="false"
       vertical_pattern="false"
       hide_knot="false"
       fuse_tolerance="0" />
    <pattern
       inkscape:collect="always"
       xlink:href="#Strips1_1.5white"
       id="pattern15433"
       patternTransform="matrix(0.96583931,0,0,14.973807,18.135777,45.523884)" />
    <pattern
       inkscape:collect="always"
       xlink:href="#Strips1_1.5white"
       id="pattern11302"
       patternTransform="matrix(1.1018537,0,0,12.253795,18.135777,45.523884)" />
    <inkscape:path-effect
       effect="knot"
       id="path-effect4341"
       is_visible="true"
       lpeversion="1"
       switcher_size="15"
       interruption_width="3"
       prop_to_stroke_width="true"
       add_stroke_width="inkscape_1.0_and_up"
       both="false"
       inverse_width="false"
       add_other_stroke_width="inkscape_1.0_and_up"
       crossing_points_vector="" />
    <pattern
       inkscape:collect="always"
       xlink:href="#Strips1_1.5white"
       id="pattern4224"
       patternTransform="matrix(-1.1444053,-1.1442898,-25.01565,25.013126,6.9145925,37.023844)" />
    <pattern
       inkscape:collect="always"
       xlink:href="#pattern3479"
       id="pattern4171"
       patternTransform="matrix(0.41797871,0.41825611,-9.4100913,9.4163366,25.703176,37.126844)" />
    <pattern
       inkscape:collect="always"
       xlink:href="#Strips1_5white"
       id="pattern3885"
       patternTransform="matrix(-0.32539801,0.32561397,-11.204359,-11.211795,18.384014,39.66783)" />
    <pattern
       inkscape:collect="always"
       patternUnits="userSpaceOnUse"
       width="6"
       height="1"
       patternTransform="translate(0,0) scale(10,10)"
       id="Strips1_5white"
       inkscape:stockid="Stripes 1:5 white">
      <rect
         style="fill:white;stroke:none"
         x="0"
         y="-0.5"
         width="1"
         height="2"
         id="rect2397" />
    </pattern>
    <pattern
       inkscape:collect="always"
       xlink:href="#pattern3479"
       id="pattern3563"
       patternTransform="matrix(0.41797871,0.41825611,-9.4100913,9.4163366,25.703176,67.768149)" />
    <pattern
       inkscape:collect="always"
       xlink:href="#Strips1_1.5white"
       id="pattern3479"
       patternTransform="matrix(0.58199217,0.58199217,-13.10258,13.10258,10.191176,-3.5357143)" />
    <pattern
       inkscape:collect="always"
       patternUnits="userSpaceOnUse"
       width="2.5"
       height="1"
       patternTransform="translate(0,0) scale(10,10)"
       id="Strips1_1.5white"
       inkscape:stockid="Stripes 1:1.5 white">
      <rect
         style="fill:white;stroke:none"
         x="0"
         y="-0.5"
         width="1"
         height="2"
         id="rect2373" />
    </pattern>
  </defs>
  <g
     inkscape:groupmode="layer"
     id="layer2"
     inkscape:label="bg"
     sodipodi:insensitive="true">
    <rect
       style="fill:#162c77;fill-opacity:1;stroke-width:1"
       id="rect1030"
       width="210"
       height="297"
       x="0.62394959"
       y="0" />
  </g>
  <g
     inkscape:label="main"
     inkscape:groupmode="layer"
     id="layer1">
    <rect
       style="fill:url(#pattern4171);fill-opacity:1;stroke:#ffffff;stroke-width:0.543695;stroke-miterlimit:4;stroke-dasharray:none"
       id="rect1264"
       width="74.806702"
       height="7.8939047"
       x="66.993271"
       y="53.62978" />
    <rect
       style="fill:url(#pattern3563);fill-opacity:1;stroke:#ffffff;stroke-width:0.543695;stroke-miterlimit:4;stroke-dasharray:none"
       id="rect3561"
       width="74.806702"
       height="7.8939047"
       x="66.993271"
       y="84.27108" />
    <rect
       style="fill:none;fill-opacity:1;stroke:#ffffff;stroke-width:0.620061;stroke-miterlimit:4;stroke-dasharray:none"
       id="rect3587"
       width="67.078644"
       height="22.783251"
       x="70.857292"
       y="61.505764" />
    <rect
       style="fill:url(#pattern3885);fill-opacity:1;stroke:#ffffff;stroke-width:0.56539;stroke-miterlimit:4;stroke-dasharray:none"
       id="rect3669"
       width="55.616623"
       height="22.846712"
       x="76.588303"
       y="61.474033" />
    <rect
       style="fill:url(#pattern4224);fill-opacity:1;stroke:#ffffff;stroke-width:0.999997;stroke-miterlimit:4;stroke-dasharray:none"
       id="rect4195"
       width="4.4204669"
       height="73.780342"
       x="102.12464"
       y="184.41454" />
    <path
       style="fill:none;fill-opacity:1;stroke:#ffffff;stroke-width:0.999997;stroke-miterlimit:4;stroke-dasharray:none"
       d="M 102.58227,204.54999 H 70.367888 v 3.84668 h 32.214382"
       id="path9859" />
    <path
       style="fill:none;fill-opacity:1;stroke:#ffffff;stroke-width:0.999997;stroke-miterlimit:4;stroke-dasharray:none"
       d="m 106.49621,208.39667 h 32.21439 v -3.84668 h -32.21439"
       id="path9941" />
    <path
       style="fill:none;fill-opacity:1;stroke:#ffffff;stroke-width:0.999997;stroke-miterlimit:4;stroke-dasharray:none"
       d="m 102.12464,184.41453 c -6.977408,10.19936 -17.984053,16.5042 -31.756752,20.13546"
       id="path10056"
       sodipodi:nodetypes="cc" />
    <path
       style="fill:none;fill-opacity:1;stroke:#ffffff;stroke-width:0.999997;stroke-miterlimit:4;stroke-dasharray:none"
       d="m 106.54511,184.41453 c 6.97741,10.19936 17.98405,16.5042 31.75675,20.13546"
       id="path10195"
       sodipodi:nodetypes="cc" />
    <path
       style="fill:url(#pattern15433);fill-opacity:1;stroke:#ffffff;stroke-width:0.999997;stroke-miterlimit:4;stroke-dasharray:none"
       d="m 58.285694,200.07222 c 2.087827,-0.13186 6.764084,2.26886 7.934575,3.48605 0.118283,0.123 0.240146,0.23311 0.364318,0.33393 0.821838,0.66731 1.744856,0.92804 2.400762,1.82982 1.134569,1.55987 1.102374,3.69185 2.284195,5.16898 0.262459,0.32804 1.29409,1.01148 1.20221,1.56271 -0.308498,1.85079 -1.661135,3.72125 -0.841546,5.77002 2.67914,6.69717 8.975689,11.00391 11.781642,17.55048 1.27514,2.97502 1.882655,4.04379 2.644858,7.09231 0.295336,1.18122 2.315617,5.44171 2.94541,6.49127 2.315828,3.85932 -0.627607,8.44385 0.288472,13.02378"
       id="path10632"
       sodipodi:nodetypes="csssssssssc" />
    <path
       style="fill:url(#pattern11302);fill-opacity:1;stroke:#ffffff;stroke-width:0.999997;stroke-miterlimit:4;stroke-dasharray:none"
       d="m 151.54695,200.15163 c -5.1495,-0.95625 -10.1373,4.95833 -12.92136,8.67004 -0.53,0.70659 1.53462,3.05109 0.85009,4.42002 -2.95973,5.91888 -13.76134,12.89479 -15.47163,17.17008 -0.95485,2.38688 -1.49003,10.40785 -2.21023,11.56005 -1.41356,2.26147 -2.96092,3.94072 -3.5317,6.76836 -0.0134,0.0666 -0.0263,0.1338 -0.0387,0.20167 -0.32324,1.77767 -0.9845,4.13631 -1.78519,5.73754 -1.05957,2.11893 -0.83356,3.71522 -2.12522,5.65252"
       id="path11022"
       sodipodi:nodetypes="csssssssc" />
    <path
       style="fill:none;fill-opacity:1;stroke:#ffffff;stroke-width:0.5;stroke-miterlimit:4;stroke-dasharray:none"
       d="M 69.518645,89.002393 42.746143,67.266206 72.327685,56.97515"
       id="path15548"
       sodipodi:nodetypes="ccc" />
    <path
       style="fill:none;fill-opacity:1;stroke:#ffffff;stroke-width:0.499999;stroke-miterlimit:4;stroke-dasharray:none"
       d="M 73.367601,79.437335 70.663818,110.42683 135.53979,81.126433"
       id="path15585"
       sodipodi:nodetypes="ccc" />
    <path
       id="path16053"
       style="fill:none;fill-opacity:1;stroke:#ffffff;stroke-width:0.499999;stroke-miterlimit:4;stroke-dasharray:none"
       d="m 52.360587,-10.019174 c 0,0 -0.06166,0.7935178 0.761749,1.2689128 0.82341,0.475395 0.91774,1.268912 0.91774,1.268912 m -5.214059,0 h 8.592639 m -8.592639,-2.5378248 h 8.592639"
       sodipodi:nodetypes="czccccc" />
    <path
       style="fill:none;fill-opacity:1;stroke:#ffffff;stroke-width:0.499999;stroke-miterlimit:4;stroke-dasharray:none"
       d="m 113.56978,-15.441617 c 0,0 0.32767,-0.478852 -0.25298,-1.189056 -0.58053,-0.710054 -0.3843,-1.265319 -0.3843,-1.265319 m 4.72379,2.492764 c -2.61858,-1.313809 -5.19035,-2.73373 -7.75379,-4.187571 m 6.92267,5.843289 c -2.66127,-1.33654 -5.26064,-2.771146 -7.83657,-4.231626 m 1.32017,0.744616 c 0,0 0.33751,-0.473408 -0.23156,-1.193093 -0.569,-0.71961 -0.36627,-1.271902 -0.36627,-1.271902 m 4.68255,2.597978 c -2.58616,-1.389922 -5.1416,-2.855771 -7.7048,-4.325356 m 6.82805,5.956782 c -2.61623,-1.405924 -5.18664,-2.879731 -7.74972,-4.349226 m 1.31219,0.751862 c 0,0 0.3427,-0.471127 -0.22162,-1.194637 -0.5643,-0.723473 -0.36048,-1.274617 -0.36048,-1.274617 m 4.6658,2.657243 c -2.56719,-1.440793 -5.11976,-2.92733 -7.69617,-4.387417 m 6.78963,6.00299 c -2.58465,-1.450068 -5.13956,-2.937834 -7.70323,-4.391104 m 1.31109,0.746195 c 0,0 0.34324,-0.472025 -0.22319,-1.193688 -0.56642,-0.721657 -0.36689,-1.273464 -0.36689,-1.273464 m 4.67354,2.670559 c -2.56169,-1.466424 -5.12483,-2.948407 -7.72792,-4.373757 m 6.8074,5.981916 c -2.56651,-1.46897 -5.11938,-2.945455 -7.697103,-4.357259 m 1.316873,0.727613 c 0,0 0.33911,-0.476117 -0.23624,-1.190244 -0.57539,-0.71418 -0.38554,-1.268443 -0.38554,-1.268443 m 4.70578,2.637926 c -2.56964,-1.466815 -5.156814,-2.919004 -7.800025,-4.284374 m 6.881375,5.893558 c -2.56184,-1.462633 -5.126127,-2.902595 -7.731354,-4.247693 m 1.329543,0.696118 c 0,0 0.330285,-0.48342 -0.260788,-1.184308 -0.591214,-0.701055 -0.416423,-1.259554 -0.416423,-1.259554 m 4.762512,2.559345 c -1.762131,-0.980664 -3.539821,-1.940602 -5.345175,-2.857106 -0.843943,-0.441851 -1.741849,-0.882918 -2.697226,-1.224674 m 7.141451,5.700429 c -1.748249,-0.973245 -3.505073,-1.922043 -5.282579,-2.823685 -0.841421,-0.413398 -1.672418,-0.823721 -2.496497,-1.13244 m 1.32438,0.565434 c 0,0 0.323815,-0.516099 -0.327198,-1.169719 -0.649548,-0.652148 -0.583794,-1.218005 -0.583794,-1.218005 m 4.996202,2.379859 c -0.687936,-0.364646 -1.379285,-0.724145 -2.074739,-1.077199 l -10e-7,0 c -1.702461,-0.891333 -3.624521,-1.779478 -5.794971,-1.855612 l -10e-7,0 c -0.327049,-6e-6 -0.64856,0.02485 -0.963465,0.0718 m 7.965749,4.49756 c -0.679281,-0.360025 -1.360938,-0.714352 -2.045665,-1.06168 l -10e-7,0 c -1.697374,-0.833937 -3.352328,-1.655358 -4.993653,-1.65544 l 0,0 c -0.22031,-0.01094 -0.441313,5.76e-4 -0.661941,0.03178 m 1.256769,0.0027 c 0,0 0.150249,-0.559669 -0.577145,-0.918886 -0.02991,-0.01487 -0.06141,-0.02914 -0.09454,-0.04268 -0.841167,-0.343789 -1.102079,-0.810761 -1.102079,-0.810761 m 5.736389,1.106317 c -1.372422,-0.638645 -2.875046,-1.163008 -4.520415,-1.220723 -1.802624,-3.4e-5 -3.436988,0.755198 -4.724405,1.803192 m 8.456164,1.112895 c -1.272459,-0.591712 -2.524543,-1.063783 -3.768794,-1.063845 -1.2143,-0.06029 -2.449641,0.561547 -3.527336,1.403012 m 1.125579,-0.752207 c 0,0 -0.220264,-0.59447 -1.118074,-0.40657 -0.903671,0.189127 -1.353414,-0.137909 -1.353414,-0.137909 m 5.618816,-1.904898 c -0.233188,-0.02703 -0.469353,-0.04528 -0.708536,-0.05367 l 0,0 c -1.900554,-3.5e-5 -3.614068,0.839484 -4.931124,1.97651 l -10e-7,0 c -1.075879,0.919415 -1.735326,2.235939 -1.844418,3.629914 m 7.281661,-3.725315 c -0.181242,-0.01888 -0.36228,-0.02886 -0.543153,-0.02887 l 0,0 c -1.280268,-0.06357 -2.583925,0.631124 -3.701552,1.542022 l 0,0 c -0.68894,0.565053 -1.132646,1.455488 -1.197192,2.35165 m 0.290548,-1.144645 c 0,0 -0.564831,-0.364064 -1.09566,0.362669 -0.536145,0.73401 -1.048778,0.910231 -1.048778,0.910231 m 3.404874,-4.973575 c -0.559313,0.304746 -1.077897,0.671514 -1.54633,1.075916 -1.276299,1.090689 -1.966566,2.740219 -1.847222,4.414942 l 0,1e-6 c 0.109033,1.18015 0.493136,2.272649 1.018435,3.258962 m 3.275007,-7.121641 c -0.435145,0.244889 -0.85618,0.541514 -1.253682,0.86549 -0.81728,0.670314 -1.289448,1.798531 -1.192925,2.851005 0,0 0,0 0,0 0.05197,0.853948 0.367794,1.701276 0.813593,2.523449 m -0.549187,-1.234078 c 0,0 -0.618843,0.110517 -0.592536,1.020895 0.02659,0.920306 -0.384452,1.306635 -0.384452,1.306635 m -0.713356,-5.945884 c -0.331622,0.77109 -0.481849,1.619842 -0.420897,2.475167 l 0,0 c 0.163472,1.769375 0.945253,3.341723 1.894176,4.654579 0.435301,0.625173 0.91214,1.228547 1.427303,1.800729 m -1.207306,-8.202248 c -0.217594,0.505948 -0.316634,1.063231 -0.267338,1.600756 l 10e-7,1e-6 c 0.07792,1.280305 0.748932,2.54573 1.561865,3.733811 0.400528,0.561277 0.8346,1.103491 1.299,1.617249 m -0.922271,-1.107994 c 0,0 -0.525303,0.303432 -0.249097,1.180603 0.277208,0.880348 -0.05695,1.35092 -0.05695,1.35092 m -3.098722,-4.842263 c 0.351703,1.054146 0.897377,2.015992 1.513517,2.868436 1.176167,1.689194 2.655589,3.219243 4.374838,4.404852 m -4.140831,-7.866809 c 0.284669,0.819544 0.752676,1.623579 1.280518,2.395006 1.08221,1.516549 2.409314,2.89393 3.917885,3.946848 m -1.125796,-0.872708 c 0,0 -0.453294,0.412409 0.0094,1.205988 0.462932,0.793999 0.253417,1.323701 0.253417,1.323701 m -4.120466,-3.919413 c 1.88321,2.481461 4.436955,4.549835 7.444358,5.571526 m -5.967264,-6.701451 c 1.719967,2.228787 3.978011,4.089828 6.557251,4.949528 m -1.290525,-0.524083 c 0,0 -0.334592,0.513499 0.317181,1.148679 0.653829,0.637184 0.608958,1.201725 0.608958,1.201725 m -4.972008,-2.796327 c 1.544745,1.300298 3.328514,2.321119 5.293909,2.894777 1.117664,0.314894 2.268952,0.444228 3.412732,0.408145 m -7.503772,-4.726002 c 1.368822,1.162415 2.922068,2.064042 4.602336,2.537197 0.91495,0.268749 1.875288,0.375962 2.83988,0.34178 m -1.37134,-0.04961 c 0,0 -0.150253,0.600414 0.678837,0.972903 0.833042,0.374264 0.992734,0.913798 0.992734,0.913798 m -5.639166,-1.154533 c 0.638869,0.301759 1.302266,0.556237 1.987759,0.756318 2.423113,0.682695 5.00427,0.493206 7.324312,-0.363213 m -8.522361,-2.061783 c 0.552706,0.262159 1.1233,0.479309 1.709345,0.644336 1.983626,0.582652 4.180588,0.406035 6.171726,-0.324597 m -1.338056,0.399237 c 0,0 0.05786,0.615053 0.968996,0.702357 0.91429,0.08761 1.23295,0.555921 1.23295,0.555921 m -5.704972,0.799595 c 2.22808,0.233156 4.499212,-0.19839 6.507952,-1.145065 0.86026,-0.403203 1.68023,-0.887179 2.44909,-1.441275 m -8.765247,0.751793 c 1.85749,0.193975 3.80281,-0.185313 5.530507,-0.988292 0.7535,-0.35247 1.47408,-0.778206 2.15094,-1.266556 m -1.18811,0.766387 c 0,0 0.23286,0.564576 1.13096,0.394797 0.90063,-0.170259 1.3304,0.20315 1.3304,0.20315 m -5.163982,2.461182 c 0.870912,-0.204321 1.719302,-0.501272 2.525442,-0.881186 2.05274,-0.962112 3.87607,-2.384138 5.32285,-4.121316 m -8.273952,3.195905 c 0.743702,-0.176106 1.472102,-0.430116 2.165452,-0.752363 1.79797,-0.841053 3.40858,-2.09928 4.68469,-3.629921 m -0.96153,1.04027 c 0,0 0.36716,0.487718 1.19511,0.09903 0.82998,-0.389635 1.3391,-0.134434 1.3391,-0.134434 m -4.31861,3.700465 c 1.9367,-1.119797 3.62176,-2.661796 4.91312,-4.486226 0.53626,-0.725998 1.02201,-1.537769 1.38619,-2.411129 m -7.22671,5.293837 c 1.70081,-0.983964 3.19107,-2.348379 4.32869,-3.953473 0.44928,-0.665502 0.86555,-1.365325 1.17779,-2.075283 m -0.6478,1.242882 c 0,0 0.48936,0.391529 1.19441,-0.210783 0.70535,-0.60256 1.26516,-0.52468 1.26516,-0.52468 m -3.26559,4.741204 c 0.65623,-0.646331 1.2555,-1.350453 1.78786,-2.102575 l 0,-1e-6 c 1.28589,-1.74085 2.2813,-3.974881 2.00685,-6.368633 l 0,-1e-6 c -0.007,-0.05282 -0.0151,-0.105512 -0.0239,-0.158059 m -5.07153,7.308527 c 0.57889,-0.5701 1.1078,-1.190897 1.57679,-1.852598 0,0 0,0 0,0 1.07731,-1.595789 1.96486,-3.388918 1.68328,-5.045926 l 0,0 c -0.005,-0.03285 -0.01,-0.06565 -0.0155,-0.09837 m 0.039,1.235095 c 0,0 0.62379,0.163614 0.9416,-0.672869 0.10127,-0.266565 0.20746,-0.473221 0.31798,-0.639983 0,0 0,0 0,0 0.23735,-0.369832 0.47561,-0.500782 0.47561,-0.500782 m -1.26838,5.805346 c 0.94193,-1.563764 1.57004,-3.418424 1.34509,-5.38038 l 0,0 c -0.13867,-1.031244 -0.61218,-2.015806 -1.38212,-2.766817 l 0,0 c -0.39705,-0.367067 -0.83358,-0.661558 -1.29024,-0.893836 m -0.2876,8.077648 c 0.80075,-1.357391 1.35535,-2.806942 1.12456,-4.165051 -10e-6,-10e-7 -10e-6,-10e-7 -10e-6,-10e-7 -0.0909,-0.641337 -0.37998,-1.264097 -0.82876,-1.681408 0,0 0,0 0,-1e-6 -0.22972,-0.23379 -0.51366,-0.422521 -0.83247,-0.576555 m 0.94025,0.683922 c 0,0 0.2255,-0.154481 0.26388,-0.495062 0.0192,-0.171032 -0.0126,-0.392782 -0.1728,-0.646364 -0.48658,-0.770369 -0.44091,-1.309931 -0.44091,-1.309931 m 2.91653,5.295453 c 0.049,-0.49769 0.0488,-1.006134 -0.0103,-1.521997 -0.13867,-1.031244 -0.61218,-2.015806 -1.38212,-2.766817 l 0,0 c -0.94328,-0.872045 -2.10937,-1.33447 -3.23889,-1.526228 -0.73894,-0.123783 -1.46111,-0.128417 -2.15916,-0.06363 m 4.97372,5.695516 c 0.0381,-0.366397 0.0317,-0.72981 -0.029,-1.086901 -0.0909,-0.641338 -0.37999,-1.264097 -0.82877,-1.681409 0,0 0,0 0,-1e-6 -0.54575,-0.555419 -1.3975,-0.85652 -2.29588,-1.042255 -0.5151,-0.109657 -1.06156,-0.107274 -1.63205,-0.04258 m 1.30323,-0.01217 c 0,0 0.16366,-0.620159 -0.67595,-0.951543 -0.8496,-0.335328 -1.05599,-0.853536 -1.05599,-0.853536 m 5.77153,1.699701 c -0.0433,-0.04577 -0.0875,-0.09078 -0.13284,-0.134969 -0.94328,-0.872045 -2.10937,-1.33447 -3.23889,-1.526228 l 0,0 c -1.78202,-0.298512 -3.46647,0.09591 -4.95037,0.485884 -0.33305,0.08172 -0.66452,0.167639 -0.994499,0.257301 m 7.979269,2.196162 c -0.0253,-0.02594 -0.0511,-0.05121 -0.0776,-0.07577 -0.54575,-0.555419 -1.3975,-0.85652 -2.29588,-1.042255 l 0,0 c -1.2422,-0.264448 -2.66682,0.122699 -4.17089,0.464056 -0.31723,0.07744 -0.63372,0.159257 -0.94956,0.244992 m 1.44242,-0.358268 c 0,0 -0.0562,-0.447268 -0.67979,-0.650469 0,0 0,0 0,0 -0.0889,-0.02896 -0.18959,-0.05268 -0.30354,-0.06881 -0.907888,-0.128562 -1.161879,-0.649967 -1.161879,-0.649967 m 5.630089,-0.872377 c -1.58511,-0.150058 -3.08284,0.204476 -4.41818,0.555406 -1.561856,0.38323 -3.088939,0.858818 -4.591122,1.379661 m 8.823972,-0.104754 c -1.14977,-0.126854 -2.43892,0.217407 -3.79241,0.524589 -1.487662,0.363162 -2.959082,0.822565 -4.424131,1.331105 m 1.412777,-0.472861 c 0,0 -0.114602,-0.577912 -1.029463,-0.637018 -0.915685,-0.05916 -1.201836,-0.567521 -1.201836,-0.567521 m 5.239223,-1.566078 c -0.14749,0.03724 -0.29319,0.07508 -0.43701,0.112877 l 0,0 c -2.429997,0.596245 -4.775826,1.416054 -7.074655,2.282033 -0.34157,0.128513 -0.682558,0.258349 -1.022985,0.389447 m 8.97306,-0.971891 c -0.14418,0.03331 -0.28921,0.06682 -0.43498,0.09991 l 0,0 c -2.314564,0.565022 -4.589814,1.363008 -6.862919,2.216561 -0.337005,0.126702 -0.67353,0.254763 -1.009593,0.384121 m 1.404085,-0.53165 c 0,0 -0.09753,-0.38873 -0.651832,-0.536694 0,0 0,0 0,0 -0.114965,-0.03069 -0.249668,-0.05096 -0.407183,-0.05499 -0.916915,-0.02347 -1.217891,-0.525365 -1.217891,-0.525365 m 5.110081,-1.839113 c -1.312021,0.422061 -2.60318,0.888746 -3.879843,1.369671 -1.505318,0.566366 -2.999342,1.158408 -4.483839,1.771085 m 8.931498,-1.377334 c -1.270066,0.409363 -2.533105,0.866249 -3.795483,1.340273 -1.485203,0.558387 -2.961061,1.143133 -4.42934,1.749198 m 1.391348,-0.566836 c 0,0 -0.156522,-0.563777 -1.073412,-0.564592 -0.917106,-8.14e-4 -1.229691,-0.495913 -1.229691,-0.495913 m 5.031829,-1.98456 c -0.114422,0.04276 -0.228724,0.08566 -0.34291,0.128679 -2.669067,1.004219 -5.302626,2.089158 -7.910528,3.226725 m 8.90145,-1.61946 c -0.112924,0.0421 -0.225837,0.08436 -0.338746,0.126759 -2.633402,0.990071 -5.237421,2.063011 -7.821907,3.190725 m 1.380853,-0.596332 c 0,0 -0.168719,-0.559854 -1.0856,-0.541673 -0.917092,0.01819 -1.239248,-0.471255 -1.239248,-0.471255 m 4.981282,-2.095228 c -2.755848,1.108893 -5.477293,2.293557 -8.175505,3.522134 m 8.866909,-1.803802 c -2.723678,1.095902 -5.419613,2.269909 -8.098976,3.490164 m 1.372356,-0.620131 c 0,0 -0.178629,-0.55646 -1.095334,-0.522941 -0.916876,0.03353 -1.246564,-0.45139 -1.246564,-0.45139 m 4.937625,-2.185719 c -2.729032,1.166685 -5.428332,2.395821 -8.109067,3.655549 m 8.83733,-1.952288 c -2.702432,1.155645 -5.381792,2.376076 -8.049248,3.629435 m 1.365857,-0.63823 c 0,0 -0.186256,-0.553594 -1.102613,-0.508395 -0.916463,0.0452 -1.251639,-0.436319 -1.251639,-0.436319 m 4.901078,-2.255933 c -2.706122,1.213338 -5.387181,2.475807 -8.054345,3.755548 m 8.81248,-2.06491 c -2.685091,1.204251 -5.35178,2.459968 -8.011234,3.735292"
       id="path17002"
       inkscape:path-effect="#path-effect17084"
       inkscape:original-d="M 117.24073,-14.575369 C 95.640866,-25.41793 91.889106,-31.338025 86.020776,-26.401902 c -4.77673,4.017921 2.61554,12.243812 8.14715,13.832154 10.774164,3.0936837 21.179064,-12.917799 11.376794,-14.74249 -4.11962,-0.766868 -16.795694,4.501461 -29.489394,10.590356"
       sodipodi:nodetypes="csssc" />
    <path
       style="fill:none;fill-opacity:1;stroke:#ffffff;stroke-width:0.421243;stroke-miterlimit:4;stroke-dasharray:none"
       d="m 166.48187,27.78004 c 0,0 0.22307,-0.307676 -0.1486,-0.769305 -0.37152,-0.461432 -0.22631,-0.818335 -0.22631,-0.818335 m 3.0836,1.600307 c -1.72281,-0.828273 -3.4018,-1.738658 -5.01804,-2.73922 m 4.45892,3.814714 c -1.76025,-0.84595 -3.47846,-1.777905 -5.13573,-2.803929 m 0.91172,0.551453 c 0,0 0.23695,-0.297596 -0.11244,-0.774933 -0.34926,-0.477124 -0.1868,-0.827197 -0.1868,-0.827197 m 3.00456,1.727871 c -1.68407,-0.896358 -3.31661,-1.878106 -4.87872,-2.953306 m 4.27305,4.005315 c -1.72295,-0.9172 -3.39617,-1.923682 -5.00077,-3.02751 m -5.27017,-1.978282 c 0,0 -0.12446,-0.397295 -0.74933,-0.314129 -0.0441,0.0059 -0.0863,0.01033 -0.12674,0.01349 -0.53716,0.04576 -0.8338,-0.05302 -0.8338,-0.05302 m 4.06124,-0.977559 c -1.28078,-0.416248 -2.55912,-0.03353 -3.52101,0.557023 v 1e-6 c -0.74653,0.444282 -1.21574,1.195713 -1.30094,2.010898 v 10e-7 c -0.0317,0.363647 -0.01,0.719256 0.0525,1.061617 m 4.31,-2.511253 c -0.66986,-0.324726 -1.58163,0.0295 -2.4213,0.47155 v 1e-6 c -0.38495,0.20425 -0.65276,0.650724 -0.69678,1.096029 0,0 0,0 0,0 -0.0296,0.235188 -0.0129,0.479854 0.0368,0.728788 m -0.0211,-0.840524 c 0,0 -0.19311,-0.06337 -0.40106,0.07521 0,0 0,0 0,0 -0.0901,0.06173 -0.1847,0.165713 -0.25058,0.333386 -0.22006,0.560047 -0.53914,0.734538 -0.53914,0.734538 m 1.89916,-3.509248 c -0.23529,0.102525 -0.45888,0.220872 -0.66758,0.349003 -0.74653,0.444283 -1.21574,1.195713 -1.30094,2.010898 v 1e-6 c -0.075,0.860591 0.15105,1.676168 0.4969,2.377672 v 10e-7 c 0.169,0.373699 0.37397,0.741956 0.61388,1.092106 m 1.38394,-4.717154 c -0.18576,0.0816 -0.37133,0.173381 -0.55351,0.26929 -0.38495,0.20425 -0.65277,0.650724 -0.69678,1.09603 0,0 0,0 0,0 -0.0703,0.556585 0.12007,1.166256 0.38979,1.759954 0,0 0,0 0,0 0.15816,0.314665 0.33832,0.624919 0.53948,0.9181 m -0.50845,-0.856976 c 0,0 -0.39823,0.119018 -0.3212,0.71979 0.0778,0.606365 -0.18374,0.882286 -0.18374,0.882286 m -1.12396,-3.780371 c -0.0158,0.07898 -0.028,0.158816 -0.0363,0.239272 v 0 c -0.075,0.860592 0.15105,1.676169 0.4969,2.377673 v 0 c 0.52165,1.153424 1.38584,2.254993 2.56277,2.93238 m -1.79577,-5.323758 c -0.009,0.04374 -0.0151,0.0877 -0.0195,0.13165 v 1e-6 c -0.0703,0.556584 0.12007,1.166255 0.3898,1.759953 0,0 0,0 0,0 0.48814,0.971214 1.18596,1.900408 2.06364,2.415258 m -0.74742,-0.571747 c 0,0 -0.34213,0.255861 -0.0331,0.772975 0.30835,0.515978 0.22071,0.859906 0.22071,0.859906 m -2.62084,-2.932066 c 0.67773,1.471837 1.91396,2.8512 3.64654,3.36164 0.51625,0.132905 1.03883,0.189714 1.55658,0.179784 m -4.06715,-4.048235 c 0.63055,1.239367 1.60273,2.402316 2.85435,2.712399 0.38423,0.114689 0.78341,0.162826 1.18643,0.153767 m -0.93774,-0.08917 c 0,0 -0.15008,0.389494 0.39413,0.660819 0.54582,0.272126 0.65887,0.608062 0.65887,0.608062 m -3.75633,-1.395416 c 0.58924,0.544617 1.29502,0.977637 2.11086,1.217992 1.42153,0.365953 2.89092,0.154969 4.17537,-0.437626 m -5.4073,-1.642705 c 0.45894,0.443153 0.98635,0.778267 1.57571,0.924279 1.05795,0.315795 2.22942,0.127012 3.28162,-0.371026 m -0.92474,0.346338 c 0,0 0.0553,0.402493 0.67704,0.41525 0.62763,0.01288 0.87757,0.290398 0.87757,0.290398 m -3.95571,0.543612 c 2.23588,0.44813 4.54917,-0.486304 6.0446,-2.052127 m -5.7763,0.886593 c 1.68066,0.385441 3.5999,-0.434071 4.86249,-1.707358 m 0.36895,-3.671137 c 0,0 0.2599,-0.377791 -0.24018,-0.705514 -0.0179,-0.01173 -0.0354,-0.0233 -0.0525,-0.03474 -0.4665,-0.31178 -0.57369,-0.619426 -0.57369,-0.619426 m 3.02721,2.624787 c -0.032,-1.333792 -1.07839,-2.348443 -2.34416,-2.572635 -1.17069,-0.178575 -2.24278,0.136343 -3.15555,0.414 m 4.25009,2.114368 c 0.10652,-0.609966 -0.59927,-1.21578 -1.32246,-1.346123 -0.74195,-0.162356 -1.62185,0.143758 -2.57899,0.387588 m 1.032,-0.270413 c 0,0 -0.046,-0.391618 -0.66711,-0.458499 -0.38222,-0.04115 -0.58827,-0.179635 -0.6949,-0.285815 -0.0687,-0.0672 -0.0952,-0.119148 -0.0952,-0.119148 m 3.96803,-0.206181 c -0.23187,-0.106442 -0.47939,-0.184343 -0.73591,-0.229777 v 0 c -1.18003,-0.18 -2.25989,0.141402 -3.17737,0.420642 v 0 c -0.78507,0.218823 -1.55584,0.469617 -2.31587,0.739323 m 5.69625,0.156187 c -0.13852,-0.06155 -0.28437,-0.107492 -0.43093,-0.133907 v 0 c -0.74787,-0.163653 -1.63591,0.148674 -2.60193,0.393415 v 0 c -0.74938,0.20805 -1.49158,0.449848 -2.23013,0.712334 m 1.0053,-0.342454 c 0,0 -0.0832,-0.374348 -0.69844,-0.403668 -0.61578,-0.02934 -0.81528,-0.355165 -0.81528,-0.355165 m 3.52399,-1.077346 c -0.39952,0.08914 -0.77837,0.203358 -1.13296,0.311281 -1.57775,0.439773 -3.09782,1.00868 -4.58896,1.600701 m 6.01801,-0.728357 c -0.34646,0.0834 -0.70817,0.188085 -1.08153,0.282674 -1.50605,0.418122 -2.98307,0.972554 -4.45979,1.557275 m -4.40777,1.864083 c 0,0 -0.13978,-0.352508 -0.55985,-0.413081 -0.42014,-0.06058 -0.62296,-0.384015 -0.62296,-0.384015 m 2.0482,-0.904017 c -1.12957,0.488434 -2.25145,0.991249 -3.36746,1.503873 m 3.88031,-0.407261 c -1.11925,0.483949 -2.2324,0.982878 -3.34131,1.492215"
       id="path21390"
       sodipodi:nodetypes="csssc" />
    <path
       style="fill:none;fill-opacity:1;stroke:#ffffff;stroke-width:0.421243;stroke-miterlimit:4;stroke-dasharray:none"
       d="m 199.57476,179.50656 c 0,0 0.22307,-0.30768 -0.1486,-0.7693 -0.37152,-0.46144 -0.22631,-0.81834 -0.22631,-0.81834 m 3.0836,1.60031 c -1.72281,-0.82828 -3.4018,-1.73866 -5.01804,-2.73922 m 4.45892,3.81471 c -1.76025,-0.84595 -3.47846,-1.7779 -5.13573,-2.80393 m 0.91172,0.55145 c 0,0 0.23695,-0.29759 -0.11244,-0.77493 -0.34926,-0.47712 -0.1868,-0.82719 -0.1868,-0.82719 m 3.00456,1.72787 c -1.68407,-0.89636 -3.31661,-1.87811 -4.87872,-2.95331 m 4.27305,4.00532 c -1.72295,-0.91721 -3.39617,-1.92369 -5.00076,-3.02752 m -5.27018,-1.97828 c 0,0 -0.12446,-0.39729 -0.74932,-0.31413 -0.0441,0.006 -0.0863,0.0103 -0.12675,0.0135 -0.53716,0.0458 -0.83379,-0.053 -0.83379,-0.053 m 4.06124,-0.97756 c -1.28078,-0.41624 -2.55913,-0.0335 -3.52101,0.55703 v 0 c -0.74653,0.44428 -1.21574,1.19571 -1.30094,2.0109 v 0 c -0.0317,0.36365 -0.01,0.71925 0.0525,1.06161 m 4.31,-2.51125 c -0.66986,-0.32472 -1.58163,0.0295 -2.4213,0.47155 v 0 c -0.38495,0.20425 -0.65276,0.65073 -0.69678,1.09603 0,0 0,0 0,0 -0.0296,0.23519 -0.0129,0.47986 0.0368,0.72879 m -0.0211,-0.84052 c 0,0 -0.19311,-0.0634 -0.40106,0.0752 0,0 0,0 0,0 -0.0901,0.0617 -0.1847,0.16571 -0.25058,0.33338 -0.22006,0.56005 -0.53914,0.73454 -0.53914,0.73454 m 1.89916,-3.50925 c -0.23529,0.10253 -0.45888,0.22087 -0.66758,0.34901 -0.74653,0.44428 -1.21574,1.19571 -1.30094,2.01089 v 0 c -0.075,0.86059 0.15105,1.67617 0.4969,2.37768 v 0 c 0.169,0.3737 0.37397,0.74195 0.61388,1.0921 m 1.38394,-4.71715 c -0.18576,0.0816 -0.37133,0.17338 -0.55351,0.26929 -0.38495,0.20425 -0.65277,0.65072 -0.69678,1.09603 0,0 0,0 0,0 -0.0703,0.55658 0.12007,1.16626 0.38979,1.75995 0,0 0,0 0,0 0.15816,0.31467 0.33832,0.62492 0.53948,0.9181 m -0.50845,-0.85697 c 0,0 -0.39823,0.11901 -0.3212,0.71979 0.0778,0.60636 -0.18374,0.88228 -0.18374,0.88228 m -1.12396,-3.78037 c -0.0158,0.079 -0.028,0.15882 -0.0363,0.23927 v 0 c -0.075,0.8606 0.15105,1.67617 0.4969,2.37768 v 0 c 0.52165,1.15342 1.38584,2.25499 2.56277,2.93238 m -1.79577,-5.32376 c -0.009,0.0437 -0.0151,0.0877 -0.0195,0.13165 v 0 c -0.0703,0.55658 0.12007,1.16626 0.3898,1.75995 0,0 0,0 0,0 0.48814,0.97122 1.18596,1.90041 2.06364,2.41526 m -0.74742,-0.57175 c 0,0 -0.34213,0.25587 -0.0331,0.77298 0.30835,0.51598 0.22071,0.85991 0.22071,0.85991 m -2.62084,-2.93207 c 0.67773,1.47184 1.91396,2.8512 3.64654,3.36164 0.51625,0.1329 1.03883,0.18971 1.55658,0.17978 m -4.06715,-4.04823 c 0.63055,1.23937 1.60273,2.40231 2.85435,2.7124 0.38423,0.11469 0.78341,0.16282 1.18643,0.15376 m -0.93774,-0.0892 c 0,0 -0.15008,0.3895 0.39413,0.66082 0.54582,0.27213 0.65887,0.60807 0.65887,0.60807 m -3.75633,-1.39542 c 0.58924,0.54462 1.29502,0.97764 2.11086,1.21799 1.42153,0.36595 2.89092,0.15497 4.17537,-0.43762 m -5.4073,-1.64271 c 0.45894,0.44315 0.98635,0.77827 1.57571,0.92428 1.05795,0.31579 2.22942,0.12701 3.28162,-0.37103 m -0.92474,0.34634 c 0,0 0.0553,0.40249 0.67704,0.41525 0.62763,0.0129 0.87757,0.2904 0.87757,0.2904 m -3.95571,0.54361 c 2.23588,0.44813 4.54917,-0.4863 6.0446,-2.05213 m -5.7763,0.8866 c 1.68066,0.38544 3.5999,-0.43407 4.86249,-1.70736 m 0.36895,-3.67114 c 0,0 0.2599,-0.37779 -0.24018,-0.70551 -0.0179,-0.0117 -0.0354,-0.0233 -0.0525,-0.0347 -0.4665,-0.31178 -0.57369,-0.61943 -0.57369,-0.61943 m 3.02721,2.62479 c -0.032,-1.33379 -1.07839,-2.34844 -2.34416,-2.57264 -1.17069,-0.17857 -2.24278,0.13635 -3.15555,0.414 m 4.25009,2.11437 c 0.10652,-0.60996 -0.59927,-1.21578 -1.32246,-1.34612 -0.74195,-0.16236 -1.62185,0.14376 -2.57899,0.38759 m 1.032,-0.27042 c 0,0 -0.046,-0.39161 -0.66711,-0.45849 -0.38222,-0.0412 -0.58827,-0.17964 -0.6949,-0.28582 -0.0687,-0.0672 -0.0952,-0.11915 -0.0952,-0.11915 m 3.96803,-0.20618 c -0.23187,-0.10644 -0.47939,-0.18434 -0.73591,-0.22978 v 0 c -1.18003,-0.18 -2.25989,0.14141 -3.17737,0.42065 v 0 c -0.78507,0.21882 -1.55584,0.46961 -2.31587,0.73932 m 5.69625,0.15619 c -0.13852,-0.0615 -0.28437,-0.1075 -0.43093,-0.13391 v 0 c -0.74787,-0.16365 -1.63591,0.14867 -2.60193,0.39341 v 0 c -0.74938,0.20805 -1.49158,0.44985 -2.23013,0.71234 m 1.0053,-0.34246 c 0,0 -0.0832,-0.37434 -0.69844,-0.40366 -0.61578,-0.0293 -0.81528,-0.35517 -0.81528,-0.35517 m 3.52399,-1.07734 c -0.39952,0.0891 -0.77837,0.20335 -1.13296,0.31128 -1.57775,0.43977 -3.09782,1.00868 -4.58896,1.6007 m 6.01801,-0.72836 c -0.34646,0.0834 -0.70817,0.18809 -1.08153,0.28267 -1.50605,0.41813 -2.98307,0.97256 -4.45979,1.55728 m -4.40777,1.86408 c 0,0 -0.13978,-0.35251 -0.55985,-0.41308 -0.42014,-0.0606 -0.62296,-0.38401 -0.62296,-0.38401 m 2.0482,-0.90402 c -1.12957,0.48843 -2.25145,0.99125 -3.36746,1.50387 m 3.88031,-0.40726 c -1.11925,0.48395 -2.2324,0.98288 -3.34131,1.49222"
       id="path21390-2"
       sodipodi:nodetypes="csssc" />
    <path
       style="fill:none;fill-opacity:1;stroke:#ffffff;stroke-width:0.499999;stroke-miterlimit:4;stroke-dasharray:none"
       d="m 137.93593,61.505763 14.2573,-28.44868"
       id="path21856"
       sodipodi:nodetypes="cc" />
    <g
       id="g24693"
       transform="translate(-26.640667,60.427207)">
      <path
         id="path23594"
         style="fill:#ffffff;fill-opacity:1;stroke:none;stroke-width:0.499999;stroke-miterlimit:4;stroke-dasharray:none"
         d="m 165.14445,50.403181 1.39735,1.163159 v 6.590026 l 0.43573,1.712118 0.43575,-1.712118 V 51.56634 l 1.39734,-1.163159 h -1.83309 z"
         sodipodi:nodetypes="ccccccccc" />
      <path
         id="path24270"
         style="fill:#ffffff;fill-opacity:1;stroke:none;stroke-width:0.5;stroke-miterlimit:4;stroke-dasharray:none"
         d="m 168.32635,51.721629 1.09574,1.459289 -1.49538,6.412399 0.0355,1.768093 0.8125,-1.563848 1.49538,-6.412406 1.62362,-0.804322 -1.78368,-0.429602 z"
         sodipodi:nodetypes="ccccccccc" />
      <path
         id="path24352"
         style="fill:#ffffff;fill-opacity:1;stroke:none;stroke-width:0.5;stroke-miterlimit:4;stroke-dasharray:none"
         d="m 162.28336,54.142862 1.60306,0.845834 1.33517,6.448814 0.77329,1.584254 0.0795,-1.766614 -1.33517,-6.448814 1.13175,-1.430629 -1.79382,0.383574 z"
         sodipodi:nodetypes="ccccccccc" />
    </g>
    <path
       style="fill:none;fill-opacity:1;stroke:#ffffff;stroke-width:0.499999;stroke-miterlimit:4;stroke-dasharray:none"
       d="m 126.19533,70.078089 50.53992,18.510504"
       id="path24405"
       sodipodi:nodetypes="cc" />
    <path
       style="fill:none;fill-opacity:1;stroke:#ffffff;stroke-width:0.499999;stroke-miterlimit:4;stroke-dasharray:none"
       d="m 128.48315,89.628513 7.69537,21.006297"
       id="path24728" />
    <path
       style="fill:none;fill-opacity:1;stroke:#ffffff;stroke-width:0.499999;stroke-miterlimit:4;stroke-dasharray:none"
       d="m 104.40756,249.9958 29.11765,31.61344"
       id="path24843" />
    <path
       style="fill:none;fill-opacity:1;stroke:#ffffff;stroke-width:0.499999;stroke-miterlimit:4;stroke-dasharray:none"
       d="M 81.474743,206.77525 38.531376,179.56798 115.3,205.89286"
       id="path24845" />
    <path
       style="fill:none;fill-opacity:1;stroke:#ffffff;stroke-width:0.499999;stroke-miterlimit:4;stroke-dasharray:none"
       d="m 98.681504,188.2449 47.355356,-6.47092 -23.67768,16.32436"
       id="path24847" />
    <path
       style="fill:none;fill-opacity:1;stroke:#ffffff;stroke-width:0.499999;stroke-miterlimit:4;stroke-dasharray:none"
       d="M 93.828316,207.06939 54.414541,248.24796"
       id="path24849" />
    <path
       style="fill:none;fill-opacity:1;stroke:#ffffff;stroke-width:0.499999;stroke-miterlimit:4;stroke-dasharray:none"
       d="m 122.06505,206.77525 36.17832,27.64847"
       id="path24851"
       sodipodi:nodetypes="cc" />
    <g
       id="g24939"
       transform="translate(-0.16872823,178.96266)">
      <path
         id="path24933"
         style="fill:#ffffff;fill-opacity:1;stroke:none;stroke-width:0.499999;stroke-miterlimit:4;stroke-dasharray:none"
         d="m 165.14445,50.403181 1.39735,1.163159 v 6.590026 l 0.43573,1.712118 0.43575,-1.712118 V 51.56634 l 1.39734,-1.163159 h -1.83309 z"
         sodipodi:nodetypes="ccccccccc" />
      <path
         id="path24935"
         style="fill:#ffffff;fill-opacity:1;stroke:none;stroke-width:0.5;stroke-miterlimit:4;stroke-dasharray:none"
         d="m 168.32635,51.721629 1.09574,1.459289 -1.49538,6.412399 0.0355,1.768093 0.8125,-1.563848 1.49538,-6.412406 1.62362,-0.804322 -1.78368,-0.429602 z"
         sodipodi:nodetypes="ccccccccc" />
      <path
         id="path24937"
         style="fill:#ffffff;fill-opacity:1;stroke:none;stroke-width:0.5;stroke-miterlimit:4;stroke-dasharray:none"
         d="m 162.28336,54.142862 1.60306,0.845834 1.33517,6.448814 0.77329,1.584254 0.0795,-1.766614 -1.33517,-6.448814 1.13175,-1.430629 -1.79382,0.383574 z"
         sodipodi:nodetypes="ccccccccc" />
    </g>
    <text
       xml:space="preserve"
       style="font-style:normal;font-variant:normal;font-weight:normal;font-stretch:normal;font-size:21.1667px;font-family:monospace;-inkscape-font-specification:monospace;fill:#ffffff;fill-opacity:1;stroke:none;stroke-width:0.499999;stroke-miterlimit:4;stroke-dasharray:none"
       x="80.107422"
       y="164.12602"
       id="text26021"><tspan
         sodipodi:role="line"
         id="tspan26019"
         style="font-style:normal;font-variant:normal;font-weight:normal;font-stretch:normal;font-size:21.1667px;font-family:monospace;-inkscape-font-specification:monospace;fill:#ffffff;stroke:none;stroke-width:0.5"
         x="80.107422"
         y="164.12602">Most</tspan></text>
    <text
       xml:space="preserve"
       style="font-style:normal;font-variant:normal;font-weight:normal;font-stretch:normal;font-size:21.1667px;font-family:monospace;-inkscape-font-specification:monospace;fill:#ffffff;fill-opacity:1;stroke:none;stroke-width:0.499999;stroke-miterlimit:4;stroke-dasharray:none"
       x="85.993378"
       y="29.707399"
       id="text28031"><tspan
         sodipodi:role="line"
         id="tspan28029"
         style="font-style:normal;font-variant:normal;font-weight:normal;font-stretch:normal;font-size:21.1667px;font-family:monospace;-inkscape-font-specification:monospace;fill:#ffffff;stroke:none;stroke-width:0.5"
         x="85.993378"
         y="29.707399">Vor</tspan><tspan
         sodipodi:role="line"
         style="font-style:normal;font-variant:normal;font-weight:normal;font-stretch:normal;font-size:21.1667px;font-family:monospace;-inkscape-font-specification:monospace;fill:#ffffff;stroke:none;stroke-width:0.5"
         x="85.993378"
         y="56.165775"
         id="tspan28091" /></text>
    <text
       xml:space="preserve"
       style="font-style:normal;font-variant:normal;font-weight:normal;font-stretch:normal;font-size:5.29167px;font-family:monospace;-inkscape-font-specification:monospace;fill:#ffffff;fill-opacity:1;stroke:none;stroke-width:0.499999;stroke-miterlimit:4;stroke-dasharray:none"
       x="169.80934"
       y="96.791588"
       id="text30345"><tspan
         sodipodi:role="line"
         id="tspan30343"
         style="font-size:5.29167px;stroke-width:0.5"
         x="169.80934"
         y="96.791588">10x podlaha</tspan><tspan
         sodipodi:role="line"
         style="font-size:5.29167px;stroke-width:0.5"
         x="169.80934"
         y="103.40617"
         id="tspan32293">- dřevo</tspan></text>
    <text
       xml:space="preserve"
       style="font-style:normal;font-variant:normal;font-weight:normal;font-stretch:normal;font-size:5.29167px;font-family:monospace;-inkscape-font-specification:monospace;fill:#ffffff;fill-opacity:1;stroke:none;stroke-width:0.499999;stroke-miterlimit:4;stroke-dasharray:none"
       x="147.51945"
       y="118.70119"
       id="text36517"
       inkscape:transform-center-x="-1.039916"
       inkscape:transform-center-y="0.41596639"><tspan
         sodipodi:role="line"
         id="tspan36513"
         style="font-size:5.29167px;stroke-width:0.5"
         x="147.51945"
         y="118.70119">5x hřebíky</tspan><tspan
         sodipodi:role="line"
         style="font-size:5.29167px;stroke-width:0.5"
         x="147.51945"
         y="125.31577"
         id="tspan36515">- železo</tspan><tspan
         sodipodi:role="line"
         style="font-size:5.29167px;stroke-width:0.5"
         x="147.51945"
         y="131.93036"
         id="tspan36701">- energie</tspan></text>
    <text
       xml:space="preserve"
       style="font-style:normal;font-variant:normal;font-weight:normal;font-stretch:normal;font-size:5.29167px;font-family:monospace;-inkscape-font-specification:monospace;fill:#ffffff;fill-opacity:1;stroke:none;stroke-width:0.499999;stroke-miterlimit:4;stroke-dasharray:none"
       x="167.52812"
       y="37.582355"
       id="text36517-1"
       inkscape:transform-center-x="-1.039916"
       inkscape:transform-center-y="0.41596639"><tspan
         sodipodi:role="line"
         id="tspan36513-8"
         style="font-size:5.29167px;stroke-width:0.5"
         x="167.52812"
         y="37.582355">8x provaz</tspan><tspan
         sodipodi:role="line"
         style="font-size:5.29167px;stroke-width:0.5"
         x="167.52812"
         y="44.196941"
         id="tspan36515-3">- juta</tspan><tspan
         sodipodi:role="line"
         style="font-size:5.29167px;stroke-width:0.5"
         x="167.52812"
         y="50.811531"
         id="tspan36701-9">- energie</tspan></text>
    <text
       xml:space="preserve"
       style="font-style:normal;font-variant:normal;font-weight:normal;font-stretch:normal;font-size:5.29167px;font-family:monospace;-inkscape-font-specification:monospace;fill:#ffffff;fill-opacity:1;stroke:none;stroke-width:0.499999;stroke-miterlimit:4;stroke-dasharray:none"
       x="52.522247"
       y="119.9395"
       id="text36517-8"
       inkscape:transform-center-x="-1.039916"
       inkscape:transform-center-y="0.41596639"><tspan
         sodipodi:role="line"
         style="font-size:5.29167px;stroke-width:0.5"
         x="52.522247"
         y="119.9395"
         id="tspan36515-9">2x příčnice</tspan><tspan
         sodipodi:role="line"
         style="font-size:5.29167px;stroke-width:0.5"
         x="52.522247"
         y="126.55408"
         id="tspan38823">- kláda</tspan><tspan
         sodipodi:role="line"
         style="font-size:5.29167px;stroke-width:0.5"
         x="52.522247"
         y="133.16867"
         id="tspan36701-8">- energie</tspan></text>
    <text
       xml:space="preserve"
       style="font-style:normal;font-variant:normal;font-weight:normal;font-stretch:normal;font-size:5.29167px;font-family:monospace;-inkscape-font-specification:monospace;fill:#ffffff;fill-opacity:1;stroke:none;stroke-width:0.499999;stroke-miterlimit:4;stroke-dasharray:none"
       x="4.8727574"
       y="62.289501"
       id="text36517-0"
       inkscape:transform-center-x="-1.039916"
       inkscape:transform-center-y="0.41596639"><tspan
         sodipodi:role="line"
         id="tspan36513-86"
         style="font-size:5.29167px;stroke-width:0.5"
         x="4.8727574"
         y="62.289501">2x bočnice</tspan><tspan
         sodipodi:role="line"
         style="font-size:5.29167px;stroke-width:0.5"
         x="4.8727574"
         y="68.904091"
         id="tspan36515-4">- strom</tspan><tspan
         sodipodi:role="line"
         style="font-size:5.29167px;stroke-width:0.5"
         x="4.8727574"
         y="75.518677"
         id="tspan36701-2">- 2 energie</tspan></text>
    <text
       xml:space="preserve"
       style="font-style:normal;font-variant:normal;font-weight:normal;font-stretch:normal;font-size:5.29167px;font-family:monospace;-inkscape-font-specification:monospace;fill:#ffffff;fill-opacity:1;stroke:none;stroke-width:0.499999;stroke-miterlimit:4;stroke-dasharray:none"
       x="5.1668949"
       y="174.35405"
       id="text36517-7"
       inkscape:transform-center-x="-1.039916"
       inkscape:transform-center-y="0.41596639"><tspan
         sodipodi:role="line"
         id="tspan36513-9"
         style="font-size:5.29167px;stroke-width:0.5"
         x="5.1668949"
         y="174.35405">4x trám</tspan><tspan
         sodipodi:role="line"
         style="font-size:5.29167px;stroke-width:0.5"
         x="5.1668949"
         y="180.96864"
         id="tspan36701-1">- kláda</tspan><tspan
         sodipodi:role="line"
         style="font-size:5.29167px;stroke-width:0.5"
         x="5.1668949"
         y="187.58322"
         id="tspan41446">- energie</tspan></text>
    <text
       xml:space="preserve"
       style="font-style:normal;font-variant:normal;font-weight:normal;font-stretch:normal;font-size:5.29167px;font-family:monospace;-inkscape-font-specification:monospace;fill:#ffffff;fill-opacity:1;stroke:none;stroke-width:0.499999;stroke-miterlimit:4;stroke-dasharray:none"
       x="148.40948"
       y="174.94231"
       id="text36517-6"
       inkscape:transform-center-x="-1.039916"
       inkscape:transform-center-y="0.41596639"><tspan
         sodipodi:role="line"
         id="tspan36513-0"
         style="font-size:5.29167px;stroke-width:0.5"
         x="148.40948"
         y="174.94231">4x provaz</tspan><tspan
         sodipodi:role="line"
         style="font-size:5.29167px;stroke-width:0.5"
         x="148.40948"
         y="181.5569"
         id="tspan36515-44">- juta</tspan><tspan
         sodipodi:role="line"
         style="font-size:5.29167px;stroke-width:0.5"
         x="148.40948"
         y="188.17148"
         id="tspan36701-88">- energie</tspan></text>
    <text
       xml:space="preserve"
       style="font-style:normal;font-variant:normal;font-weight:normal;font-stretch:normal;font-size:5.29167px;font-family:monospace;-inkscape-font-specification:monospace;fill:#ffffff;fill-opacity:1;stroke:none;stroke-width:0.499999;stroke-miterlimit:4;stroke-dasharray:none"
       x="173.41077"
       y="237.29843"
       id="text36517-4"
       inkscape:transform-center-x="-1.039916"
       inkscape:transform-center-y="0.41596639"><tspan
         sodipodi:role="line"
         style="font-size:5.29167px;stroke-width:0.5"
         x="173.41077"
         y="237.29843"
         id="tspan50852">10x hřebíky</tspan><tspan
         sodipodi:role="line"
         style="font-size:5.29167px;stroke-width:0.5"
         x="173.41077"
         y="243.91302"
         id="tspan36515-48">- železo</tspan><tspan
         sodipodi:role="line"
         style="font-size:5.29167px;stroke-width:0.5"
         x="173.41077"
         y="250.5276"
         id="tspan36701-89">- energie</tspan></text>
    <text
       xml:space="preserve"
       style="font-style:normal;font-variant:normal;font-weight:normal;font-stretch:normal;font-size:5.29167px;font-family:monospace;-inkscape-font-specification:monospace;fill:#ffffff;fill-opacity:1;stroke:none;stroke-width:0.499999;stroke-miterlimit:4;stroke-dasharray:none"
       x="14.617936"
       y="255.53465"
       id="text36517-4-1"
       inkscape:transform-center-x="-1.039916"
       inkscape:transform-center-y="0.41596639"><tspan
         sodipodi:role="line"
         style="font-size:5.29167px;stroke-width:0.5"
         x="14.617936"
         y="255.53465"
         id="tspan36515-48-5">15x podlaha</tspan><tspan
         sodipodi:role="line"
         style="font-size:5.29167px;stroke-width:0.5"
         x="14.617936"
         y="262.14923"
         id="tspan36701-89-1">- dřevo</tspan></text>
    <text
       xml:space="preserve"
       style="font-style:normal;font-variant:normal;font-weight:normal;font-stretch:normal;font-size:5.29167px;font-family:monospace;-inkscape-font-specification:monospace;fill:#ffffff;fill-opacity:1;stroke:none;stroke-width:0.499999;stroke-miterlimit:4;stroke-dasharray:none"
       x="138.11485"
       y="276.12396"
       id="text36517-5"
       inkscape:transform-center-x="-1.039916"
       inkscape:transform-center-y="0.41596639"><tspan
         sodipodi:role="line"
         id="tspan36513-00"
         style="font-size:5.29167px;stroke-width:0.5"
         x="138.11485"
         y="276.12396">2x pilíř</tspan><tspan
         sodipodi:role="line"
         style="font-size:5.29167px;stroke-width:0.5"
         x="138.11485"
         y="282.73856"
         id="tspan36515-1">- strom</tspan><tspan
         sodipodi:role="line"
         style="font-size:5.29167px;stroke-width:0.5"
         x="138.11485"
         y="289.35315"
         id="tspan36701-99">- 3 energie</tspan></text>
  </g>
</svg>
