<?xml version="1.0" encoding="UTF-8" standalone="no"?>
<!-- Created with Inkscape (http://www.inkscape.org/) -->

<svg
   width="210mm"
   height="297mm"
   viewBox="0 0 210 297"
   version="1.1"
   id="svg5"
   inkscape:version="1.1.2 (b8e25be833, 2022-02-05)"
   sodipodi:docname="cube.svg"
   xmlns:inkscape="http://www.inkscape.org/namespaces/inkscape"
   xmlns:sodipodi="http://sodipodi.sourceforge.net/DTD/sodipodi-0.dtd"
   xmlns="http://www.w3.org/2000/svg"
   xmlns:svg="http://www.w3.org/2000/svg">
  <sodipodi:namedview
     id="namedview7"
     pagecolor="#505050"
     bordercolor="#eeeeee"
     borderopacity="1"
     inkscape:pageshadow="0"
     inkscape:pageopacity="0"
     inkscape:pagecheckerboard="0"
     inkscape:document-units="mm"
     showgrid="false"
     inkscape:zoom="1.272138"
     inkscape:cx="461.03487"
     inkscape:cy="608.81757"
     inkscape:window-width="1920"
     inkscape:window-height="991"
     inkscape:window-x="-9"
     inkscape:window-y="-9"
     inkscape:window-maximized="1"
     inkscape:current-layer="layer1" />
  <defs
     id="defs2">
    <inkscape:path-effect
       effect="rough_hatches"
       id="path-effect117509"
       is_visible="true"
       lpeversion="1"
       direction="305.65623,264.30251 , 0.73985216,2.7127857"
       dist_rdm="75;1"
       growth="0"
       do_bend="true"
       bender="305.65623,269.30251 , 5,0"
       bottom_edge_variation="1.328331;1"
       top_edge_variation="1.328331;1"
       bottom_tgt_variation="0;1"
       top_tgt_variation="0;1"
       scale_bf="1"
       scale_bb="1"
       scale_tf="1"
       scale_tb="1"
       top_smth_variation="0;1"
       bottom_smth_variation="0;1"
       fat_output="true"
       stroke_width_top="1"
       stroke_width_bottom="1"
       front_thickness="1"
       back_thickness="0.25" />
    <inkscape:path-effect
       effect="rough_hatches"
       id="path-effect117513"
       is_visible="true"
       lpeversion="1"
       direction="324.44166,283.08795 , -2.6660124,-1.2160764"
       dist_rdm="75;1"
       growth="0"
       do_bend="true"
       bender="324.44166,288.08795 , 5,0"
       bottom_edge_variation="0;1"
       top_edge_variation="0;1"
       bottom_tgt_variation="0;1"
       top_tgt_variation="0;1"
       scale_bf="1"
       scale_bb="1"
       scale_tf="1"
       scale_tb="1"
       top_smth_variation="0;1"
       bottom_smth_variation="0;1"
       fat_output="true"
       stroke_width_top="1"
       stroke_width_bottom="1"
       front_thickness="1"
       back_thickness="0.25" />
    <inkscape:path-effect
       effect="rough_hatches"
       id="path-effect117517"
       is_visible="true"
       lpeversion="1"
       direction="292.56003,294.59391 , -2.3003309,1.6837934"
       dist_rdm="75;1"
       growth="0"
       do_bend="true"
       bender="299.01459,294.7296 , 5,0"
       bottom_edge_variation="0;1"
       top_edge_variation="0;1"
       bottom_tgt_variation="0;1"
       top_tgt_variation="0;1"
       scale_bf="1"
       scale_bb="1"
       scale_tf="1"
       scale_tb="1"
       top_smth_variation="0;1"
       bottom_smth_variation="0;1"
       fat_output="true"
       stroke_width_top="1"
       stroke_width_bottom="1"
       front_thickness="1"
       back_thickness="0.25" />
  </defs>
  <g
     inkscape:label="Layer 1"
     inkscape:groupmode="layer"
     id="layer1">
    <g
       id="g1143"
       inkscape:export-filename="C:\Users\David\Documents\GitHub\tabor_2022\posters\spisy\sources\cube.png"
       inkscape:export-xdpi="600"
       inkscape:export-ydpi="600">
      <path
         style="fill:none;stroke:#000000;stroke-width:0.5;stroke-linecap:butt;stroke-linejoin:miter;stroke-miterlimit:4;stroke-dasharray:4, 4;stroke-dashoffset:0;stroke-opacity:1"
         d="m 85.94241,126.02521 0.0355,68.30478"
         id="path117473" />
      <path
         style="fill:none;stroke:#000000;stroke-width:0.5;stroke-linecap:butt;stroke-linejoin:miter;stroke-miterlimit:4;stroke-dasharray:4, 4;stroke-dashoffset:0;stroke-opacity:1"
         d="m 99.22455,118.65338 -2e-5,68.26828"
         id="path117475"
         sodipodi:nodetypes="cc" />
      <path
         style="fill:none;stroke:#000000;stroke-width:0.5;stroke-linecap:butt;stroke-linejoin:miter;stroke-miterlimit:4;stroke-dasharray:4, 4;stroke-dashoffset:0;stroke-opacity:1"
         d="m 123.5121,145.62195 v 48.70804"
         id="path117477" />
      <path
         style="fill:none;stroke:#000000;stroke-width:0.499999;stroke-linecap:butt;stroke-linejoin:miter;stroke-miterlimit:4;stroke-dasharray:3.00001, 3.00001;stroke-dashoffset:0;stroke-opacity:1"
         d="m 148.81394,119.0458 -74.3695,74.3695"
         id="path117479" />
      <path
         style="fill:none;stroke:#000000;stroke-width:0.5;stroke-linecap:butt;stroke-linejoin:miter;stroke-miterlimit:4;stroke-dasharray:4, 4;stroke-dashoffset:0;stroke-opacity:1"
         d="M 73.52914,144.34762 H 123.5121"
         id="path117481" />
      <path
         style="fill:none;stroke:#000000;stroke-width:0.5;stroke-linecap:butt;stroke-linejoin:miter;stroke-miterlimit:4;stroke-dasharray:4, 4;stroke-dashoffset:0;stroke-opacity:1"
         d="m 85.97146,181.91845 55.8626,3e-5"
         id="path117483" />
      <path
         style="fill:none;stroke:#000000;stroke-width:0.5;stroke-linecap:butt;stroke-linejoin:miter;stroke-miterlimit:4;stroke-dasharray:4, 4;stroke-dashoffset:0;stroke-opacity:1"
         d="m 87.25502,168.6352 62.17383,-5e-5"
         id="path117485" />
      <path
         style="fill:#ffffff;fill-opacity:1;stroke:none;stroke-width:0.264583px;stroke-linecap:butt;stroke-linejoin:miter;stroke-opacity:1"
         d="M 99.6433,130.64557 86.36,143.9289 v 37.57083 h 37.57083 l 13.2833,-13.28333 -2e-5,-37.5708 z"
         id="path117487" />
      <path
         style="fill:none;stroke:#000000;stroke-width:0.5;stroke-linecap:butt;stroke-linejoin:miter;stroke-miterlimit:4;stroke-dasharray:4, 4;stroke-dashoffset:0;stroke-opacity:1"
         d="m 149.205,156.22552 -38.10438,38.10447"
         id="path117489" />
      <path
         style="fill:none;stroke:#000000;stroke-width:0.5;stroke-linecap:butt;stroke-linejoin:miter;stroke-miterlimit:4;stroke-dasharray:4, 4;stroke-dashoffset:0;stroke-opacity:1"
         d="M 111.63534,118.65352 74.44443,155.84445"
         id="path117491" />
      <path
         style="fill:none;stroke:#000000;stroke-width:0.5;stroke-linecap:butt;stroke-linejoin:miter;stroke-miterlimit:4;stroke-dasharray:4, 4;stroke-dashoffset:0;stroke-opacity:1"
         d="M 149.205,131.06431 H 85.94503"
         id="path117493" />
      <path
         style="fill:none;stroke:#000000;stroke-width:0.5;stroke-linecap:butt;stroke-linejoin:miter;stroke-miterlimit:4;stroke-dasharray:4, 4;stroke-dashoffset:0;stroke-opacity:1"
         d="m 136.79537,118.65384 v 68.30387"
         id="path117495" />
      <path
         style="fill:none;stroke:#000000;stroke-width:0.3;stroke-linecap:butt;stroke-linejoin:miter;stroke-miterlimit:4;stroke-dasharray:none;stroke-opacity:1"
         d="m 122.7534,143.84146 c 0,0 1.18751,-0.16884 1.94818,-0.92721 0.61957,-0.61771 -1.03242,-0.4336 -2.77268,-0.10282 -1.75283,0.33316 -3.64384,0.82016 -3.50668,0.82016 -1.15089,0 7.42277,-2.15874 7.77482,-2.50774 0.42741,-0.42371 -2.71122,0.23207 -5.89412,0.98795 -3.19046,0.75767 -6.46529,1.62082 -6.05574,1.62082 -0.30306,0 2.99632,-0.85372 6.38156,-1.7966 3.40357,-0.94799 6.83576,-1.96984 7.20003,-2.33162 0.61942,-0.61519 -4.11386,0.41596 -9.07195,1.58907 -4.97349,1.17675 -10.25762,2.50638 -10.11733,2.50638 -0.57231,0 5.08758,-1.47125 10.75859,-3.05219 5.71783,-1.59399 11.30631,-3.2585 11.75509,-3.71029 0.70589,-0.71062 -6.13988,0.92791 -13.32348,2.73168 -7.19882,1.80759 -14.85626,3.79188 -14.24947,3.79188 -0.10582,0 7.33264,-1.86124 14.46569,-3.78198 7.18828,-1.9356 13.92154,-3.8861 14.17443,-4.13895 0.51252,-0.51244 -7.25291,1.4927 -15.59134,3.63429 -8.32844,2.13901 -17.277315,4.40678 -16.936647,4.40678 -0.371941,0 8.523767,-2.2524 17.003437,-4.56896 8.55868,-2.33814 16.48978,-4.67569 16.76955,-4.95391 0.54103,-0.53803 -8.41078,1.85538 -18.17178,4.4015 -9.73952,2.54052 -20.326282,5.21694 -19.948044,5.21694 -0.33437,0 10.262304,-2.66411 20.257324,-5.44195 10.12026,-2.81264 19.28761,-5.63457 19.78063,-6.12426 0.75539,-0.75028 -9.76266,2.13655 -21.50475,5.2275 -11.72273,3.08586 -24.773943,6.36056 -24.517808,6.36056 -0.456474,0 12.396958,-3.24208 24.024748,-6.48416 11.62778,-3.24207 22.02991,-6.48415 21.4365,-6.48415 -1.30602,0 -12.06882,3.06685 -23.63099,6.19516 -11.562173,3.12832 -23.965583,6.3181 -24.21018,6.56397 -0.01049,0.0105 13.09754,-3.24306 24.90025,-6.49931 11.80272,-3.25624 22.29818,-6.51512 21.87384,-6.51512 -1.13696,0 -11.34239,2.9346 -22.26742,5.89776 -10.92504,2.96315 -22.588475,5.95485 -22.700422,6.06904 0.122223,-0.12467 11.754242,-3.11296 22.206672,-6.07008 10.45244,-2.95712 19.74574,-5.88307 19.11163,-5.88307 -1.34672,0 -10.53008,2.59213 -20.19341,5.24159 -9.66332,2.64947 -19.839567,5.35627 -20.064587,5.58561 0.01452,-0.0148 10.446597,-2.696 19.956367,-5.3735 9.50977,-2.6775 18.09947,-5.35131 17.67512,-5.35131 -1.13695,0 -9.6954,2.4295 -18.69522,4.91759 -8.999826,2.48809 -18.472512,5.03479 -18.703857,5.2692 0.01265,-0.0128 9.934597,-2.58238 19.010167,-5.14874 9.07556,-2.56636 17.3066,-5.12952 16.91983,-5.12952 -1.09938,0 -9.13685,2.27994 -17.53454,4.60745 -8.39769,2.32751 -17.179671,4.70258 -17.366469,4.89285 0.05923,-0.0603 8.976959,-2.41664 16.974179,-4.75785 7.99723,-2.34122 15.08187,-4.66736 13.94368,-4.66736 -1.85079,0 -8.71775,1.80669 -15.5347,3.6574 -6.81694,1.85071 -13.601456,3.74545 -13.775086,3.92154 0.08331,-0.0845 6.896968,-1.94987 13.044306,-3.79413 6.14733,-1.84426 11.63697,-3.6674 10.59585,-3.6674 -1.75374,0 -7.00811,1.32825 -12.06048,2.69374 -5.025251,1.35817 -9.920925,2.77556 -10.061522,2.9172 0.121795,-0.1227 5.078191,-1.54147 9.688142,-2.92958 4.60995,-1.3881 8.88268,-2.74553 8.48964,-2.74553 -1.10564,0 -5.11676,1.05042 -9.00875,2.13383 -3.874347,1.07849 -7.677335,2.20471 -7.80297,2.33174 0.138655,-0.1402 4.055993,-1.30629 7.54297,-2.41647 3.50715,-1.1166 6.63928,-2.19655 5.81105,-2.19655 -3.08167,0 -10.68357,2.27105 -11.154673,2.75143 0.0484,-0.0494 2.408983,-0.75359 4.570603,-1.4455 2.16162,-0.6919 4.12615,-1.37146 3.59536,-1.37146 -2.48681,0 -6.407944,1.18415 -6.823564,1.60957 0.165416,-0.16932 4.977364,-1.61776 3.828114,-1.61776 -2.55222,0 -4.268732,1.08517 -4.268732,1.08517 0,0 4.642182,-0.82206 3.403302,-0.82206 0.19911,0 -3.291023,1.05196 -3.852233,1.61777 -0.571682,0.57636 1.47626,0.18179 3.517613,-0.36958 2.02689,-0.54746 3.98684,-1.23999 3.32995,-1.23999 0.11144,0 -7.725327,2.33218 -8.207967,2.81696 -0.526112,0.52845 2.508197,-0.15242 5.550477,-0.97676 3.02938,-0.82084 6.00468,-1.77467 5.64523,-1.77467 0.35315,0 -2.72358,0.9871 -6.07991,2.05727 -3.332738,1.06265 -7.016829,2.23095 -7.342904,2.55574 -0.608983,0.60659 4.167831,-0.50124 8.768474,-1.77463 4.58519,-1.2691 8.90448,-2.69093 8.10984,-2.69093 -0.082,0 -4.30966,1.26688 -8.7731,2.6097 -4.430425,1.33289 -9.193217,2.77154 -9.489312,3.06541 -0.577326,0.57298 5.307068,-0.82479 11.064262,-2.37388 5.74796,-1.5466 11.28796,-3.23706 11.14141,-3.23706 0.56605,0 -4.89629,1.73628 -10.90493,3.53711 -5.95624,1.78512 -12.603763,3.68191 -12.846492,3.92442 -0.520979,0.52049 7.336919,-1.37765 14.845272,-3.40038 7.51468,-2.02443 14.62703,-4.17856 14.57753,-4.17856 0.66312,0 -6.41225,2.2426 -14.27893,4.54205 -7.866675,2.29945 -16.552832,4.65576 -16.779478,4.88316 -0.483744,0.48536 9.425295,-1.90443 18.496978,-4.39165 9.09851,-2.49457 17.3466,-5.10865 16.5457,-5.10865 -0.0883,0 -8.31717,2.48075 -17.26529,5.00591 -8.948121,2.52515 -18.640019,5.09472 -18.817976,5.27234 -0.436415,0.43561 10.190123,-2.1326 19.853016,-4.77475 9.70223,-2.65291 18.4613,-5.41203 17.69797,-5.41203 -0.0507,0 -8.64269,2.59242 -18.02724,5.22923 -9.384542,2.63681 -19.587316,5.31802 -19.764179,5.49558 -0.43279,0.4345 10.915389,-2.29789 21.234549,-5.09732 10.36633,-2.81223 19.73847,-5.72988 19.1849,-5.72988 0.15904,0 -9.14619,2.84633 -19.47828,5.76364 -10.332092,2.91731 -21.735694,5.9056 -22.018265,6.18951 -0.533979,0.53651 12.317165,-2.48267 23.898525,-5.59133 11.63254,-3.12239 22.0111,-6.37547 21.24776,-6.37547 -0.0507,0 -10.56631,3.18044 -22.25221,6.39746 -11.685902,3.21703 -24.568187,6.47063 -24.715945,6.61696 -0.406554,0.40263 13.233659,-2.82911 25.426855,-6.09332 12.27156,-3.28519 23.19885,-6.6658 22.60458,-6.6658 0.11834,0 -10.56967,3.24208 -22.2458,6.48415 -11.67613,3.24208 -24.340379,6.48415 -23.408833,6.48415 1.644155,0 14.107603,-2.87403 25.235533,-5.75955 11.12792,-2.88553 20.91287,-5.78254 20.95983,-5.8285 -0.26007,0.25454 -9.82355,3.1461 -20.02324,5.97401 -10.19969,2.82792 -20.996635,5.5922 -20.187192,5.5922 1.52205,0 11.577022,-2.29377 20.712802,-4.64296 9.13578,-2.34919 17.32424,-4.7538 17.55046,-4.97548 -0.0666,0.0653 -8.3376,2.44603 -17.01359,4.81042 -8.676,2.36439 -17.748423,4.71245 -16.901411,4.71245 1.559621,0 10.021251,-1.89841 17.742391,-3.85275 7.7764,-1.96833 14.66422,-3.95062 14.90551,-4.18832 -0.0541,0.0533 -7.09719,2.03354 -14.41991,4.00044 -7.32272,1.96691 -14.91922,3.92049 -14.33833,3.92049 1.2935,0 8.5072,-1.62688 15.09955,-3.25577 6.59234,-1.62889 12.5626,-3.25978 12.57068,-3.2678 -0.27412,0.27188 -6.10583,1.93882 -12.00392,3.57627 -5.85544,1.62562 -11.65799,3.18622 -10.6106,3.18622 1.75999,0 6.64968,-0.98982 11.00581,-1.99666 4.35614,-1.00684 8.17496,-2.03071 8.24454,-2.0988 -0.1955,0.19133 -3.8681,1.21428 -7.44452,2.20419 -3.55997,0.98537 -6.97676,1.92403 -6.19863,1.92403 2.98148,0 11.50182,-2.13308 11.98876,-2.60877 -0.01,0.01 -2.44398,0.6365 -4.6573,1.26105 -2.21332,0.62454 -4.20543,1.2467 -3.15491,1.2467 3.52625,0 6.24778,-0.67582 6.29005,-0.71734 -0.44431,0.43648 -0.89624,0.66409 -0.89624,0.66409 z"
         id="path117497"
         inkscape:path-effect="#path-effect117509"
         inkscape:original-d="m 99.63599,130.55815 -13.2833,13.28331 h 37.57081 l 13.2833,-13.2833 z" />
      <path
         style="fill:none;fill-opacity:1;stroke:#000000;stroke-width:0.5;stroke-linecap:butt;stroke-linejoin:miter;stroke-miterlimit:4;stroke-dasharray:none;stroke-opacity:1"
         d="m 123.92353,144.46594 c 0,0 0.98904,-1.07196 0.72891,-0.81274 0.43557,-0.43404 -0.72583,2.39413 -0.72583,3.98127 0,1.27216 1.05278,-0.54553 2.06958,-2.69382 1.01318,-2.14066 1.96982,-4.58901 1.92066,-4.54003 0.2948,-0.29376 -0.65153,2.32509 -1.71954,5.09033 -1.06301,2.75229 -2.27352,5.71139 -2.27352,6.03339 0,0.81287 1.65503,-2.53325 3.16544,-6.02162 1.51247,-3.49313 2.87479,-7.14281 2.69222,-6.96087 0.1538,-0.15326 -1.20419,3.47469 -2.70381,7.30635 -1.48723,3.80004 -3.15211,7.89866 -3.15211,8.52864 0,1.12791 2.38412,-3.56895 4.56214,-8.50865 2.18166,-4.94796 4.14161,-10.16356 4.09235,-10.11447 0.28131,-0.28033 -1.64909,5.08924 -3.87749,10.71564 -2.20306,5.56242 -4.77622,11.57357 -4.77622,12.25652 0,1.21846 3.40286,-5.43828 6.349,-12.23492 2.95913,-6.82663 5.46067,-13.88312 5.19069,-13.61409 0.0548,-0.0546 -2.45745,6.85417 -5.35378,13.87189 -2.89632,7.01772 -6.18826,14.14435 -6.18826,14.52541 0,0.85911 3.65973,-6.40438 6.84964,-13.76499 3.2097,-7.40624 5.9611,-15.04652 5.91473,-15.16917 0.0585,0.15481 -2.68162,7.81775 -5.88565,15.53924 -3.20402,7.72149 -6.87868,15.50153 -6.87868,15.89055 0,0.85396 3.66487,-6.26307 6.8905,-13.52886 3.24388,-7.3069 6.05314,-14.88588 6.05411,-15.16137 -9.8e-4,0.27883 -2.799,7.85735 -6.03195,15.52806 -3.23295,7.67071 -6.91112,15.43362 -6.91112,16.08122 0,1.09027 3.62012,-5.61852 6.84733,-12.54948 3.24047,-6.95942 6.0793,-14.22638 6.07989,-14.39471 -0.001,0.36032 -2.8279,7.69816 -6.0599,15.03225 -3.23201,7.33409 -6.86899,14.66444 -6.86899,15.00976 0,0.78278 3.60965,-5.91058 6.83211,-12.8257 3.23782,-6.94809 6.08419,-14.21686 6.08607,-14.74976 6e-5,-0.0169 -2.84269,7.03641 -6.07055,14.15472 -3.22786,7.1183 -6.84788,14.30163 -6.84788,14.54488 0,0.6443 3.58805,-5.97464 6.82216,-12.81072 3.23412,-6.83608 6.09063,-13.88931 6.09142,-14.11356 -0.001,0.28306 -2.84982,7.35808 -6.07738,14.45249 -3.22756,7.0944 -6.83588,14.20819 -6.83588,14.56878 0,0.78499 3.58179,-5.68284 6.80102,-12.36515 3.23346,-6.71189 6.10067,-13.72697 6.10228,-14.18436 -1.3e-4,0.0383 -2.86319,6.88613 -6.08776,13.78371 -3.22458,6.89758 -6.81586,13.84489 -6.81586,14.08204 0,0.62818 3.5623,-5.77559 6.79371,-12.45045 3.23141,-6.67487 6.10358,-13.62083 6.10519,-14.07708 -1.2e-4,0.0333 -2.86945,6.81026 -6.09299,13.6324 -3.22353,6.82214 -6.80594,13.68948 -6.80594,13.90357 0,0.60223 3.55536,-5.75502 6.78486,-12.35165 3.2295,-6.59663 6.10825,-13.43265 6.1095,-13.78795 -4.5e-4,0.12805 -2.87259,6.87274 -6.09244,13.74315 -3.21985,6.87041 -6.80002,13.86654 -6.80002,14.49749 0,1.03188 3.53429,-4.98303 6.75284,-11.27108 3.22809,-6.30669 6.1256,-12.94245 6.12667,-13.24547 -5.8e-4,0.16455 -2.88827,6.74217 -6.10568,13.41986 -3.2174,6.6777 -6.77429,13.45547 -6.77429,14.02031 0,0.95824 3.51796,-4.93593 6.73213,-11.06646 3.22411,-6.1495 6.13481,-12.59222 6.13563,-12.82589 -7.7e-4,0.21979 -2.70252,6.21065 -5.61229,12.08254 -2.90978,5.8719 -6.01674,11.62484 -5.76069,11.36879 0.75289,-0.75289 3.73031,-5.95015 6.41199,-11.13869 2.66088,-5.14831 4.95362,-10.16725 4.9543,-10.36238 -8.8e-4,0.25092 -2.27567,5.24318 -4.60382,10.03902 -2.33531,4.81061 -4.67988,9.38052 -4.15991,8.86055 1.00522,-1.00522 3.25241,-4.81171 5.2057,-8.53241 1.94078,-3.69688 3.54619,-7.23649 3.54743,-7.58886 -2.9e-4,0.0836 -1.73519,3.76202 -3.48961,7.33595 -1.75442,3.57392 -3.52238,7.0433 -3.18776,6.70868 0.78739,-0.78739 2.48851,-3.68446 3.96885,-6.50337 1.47706,-2.81267 2.70147,-5.48353 2.70254,-5.78723 -4.7e-4,0.13353 -1.30926,2.90348 -2.5863,5.55077 -1.27893,2.65119 -2.51322,5.16803 -2.16002,4.81483 1.57856,-1.57856 4.73922,-7.84785 4.73929,-7.86925 -0.003,0.82114 -2.36192,5.49162 -1.86509,4.99478 1.34106,-1.34105 1.85365,-2.36072 1.85651,-3.17237 -7e-5,0.0185 -1.04303,2.35881 -1.04303,2.35881 0,0 1.49612,-2.69641 1.49612,-3.26863 0,-1.37571 -2.72609,4.05623 -1.84535,3.17237 0.066,-0.0663 1.84753,-3.61194 1.84753,-4.99478 -1e-5,-1.11628 -1.31687,1.0398 -2.58108,3.3725 -1.27048,2.34426 -2.48449,4.85196 -2.13053,4.49675 -0.0687,0.069 1.15402,-2.3124 2.34976,-4.81604 1.20093,-2.51448 2.36009,-5.11868 2.36009,-5.54956 0,-0.84593 -1.75963,2.41756 -3.51583,5.80578 -1.76113,3.39772 -3.49471,6.86856 -3.11232,6.48482 -0.0418,0.0419 1.70227,-3.28214 3.37102,-6.71024 1.67741,-3.44588 3.25694,-6.94244 3.25694,-7.33439 0,-0.80103 -2.12762,3.31605 -4.35588,7.61037 -2.22356,4.28526 -4.54952,8.72062 -4.34054,8.5109 -0.23611,0.23695 2.09823,-4.21379 4.33498,-8.86085 2.25363,-4.68212 4.36227,-9.45536 4.36227,-10.03872 0,-0.97381 -2.7969,4.6129 -5.75281,10.38353 -2.94539,5.7501 -6.04106,11.62254 -5.53785,11.11754 0.0482,-0.0484 3.11452,-5.65016 5.92758,-11.37037 2.81305,-5.72022 5.3629,-11.55886 5.3629,-12.08096 0,-0.95494 -2.8856,4.94733 -6.08551,11.1701 -3.18932,6.20216 -6.6984,12.66302 -6.6982,12.72225 -0.001,-0.31521 3.5262,-6.93713 6.72331,-13.5993 3.19711,-6.66217 6.06013,-13.36461 6.06013,-13.84087 0,-0.91966 -2.86961,5.15804 -6.07378,11.54575 -3.19204,6.36354 -6.7195,12.96459 -6.71948,12.9708 -0.001,-0.37608 3.54813,-7.2111 6.7472,-14.06466 3.19907,-6.85357 6.04591,-13.72568 6.04591,-14.17598 0,-0.90896 -2.85144,5.36014 -6.05513,12.04495 -3.19186,6.66011 -6.7488,13.66183 -6.74728,14.09465 1.6e-4,0.0447 3.55181,-6.65948 6.75488,-13.46471 3.20308,-6.80524 6.04718,-13.71157 6.04718,-14.07126 0,-0.82083 -2.84204,5.54695 -6.04876,12.31593 -3.19326,6.74056 -6.75827,13.79707 -6.75681,14.2116 8e-5,0.0235 3.56014,-6.75856 6.76406,-13.6387 3.20392,-6.88014 6.04153,-13.85834 6.04153,-14.22704 0,-0.83445 -2.83578,5.59437 -6.04468,12.40339 -3.19481,6.7791 -6.76627,13.84865 -6.76522,14.14611 -3.5e-4,-0.0974 3.57559,-7.04205 6.78187,-14.11771 3.20628,-7.07566 6.02929,-14.28229 6.02929,-14.90356 0,-1.10543 -2.83043,5.36674 -6.03533,12.29682 -3.19418,6.90692 -6.78502,14.20228 -6.78352,14.62746 8e-5,0.0241 3.58746,-6.9872 6.79416,-14.08634 3.2067,-7.09914 6.02329,-14.2861 6.02329,-14.61326 0,-0.8087 -2.8118,5.85178 -6.02483,12.90873 -3.19733,7.02247 -6.79748,14.33793 -6.79633,14.66673 -2.6e-4,-0.0757 3.60272,-7.22979 6.81285,-14.54319 3.21012,-7.31339 6.01035,-14.78606 6.01035,-15.49882 0,-1.2153 -2.80984,5.44711 -6.02039,12.50896 -3.19866,7.03571 -6.81219,14.39247 -6.81204,14.43523 -0.001,-0.37146 3.64085,-7.94959 6.85106,-15.59696 3.2102,-7.64736 5.98081,-15.36395 5.9808,-16.01232 0,-1.17238 -2.7777,5.7809 -5.99049,13.20508 -3.19969,7.39389 -6.85429,15.16778 -6.85317,15.48515 -3.8e-4,-0.10646 3.68326,-7.79402 6.8809,-15.5399 3.19764,-7.74589 5.9025,-15.55011 5.77285,-15.88989 -0.23551,-0.61724 -2.99334,6.44648 -6.09352,13.74943 -3.10018,7.30294 -6.57025,14.8451 -6.56905,15.18473 -3.3e-4,-0.0928 3.39489,-7.3273 6.32056,-14.47103 2.92568,-7.14373 5.39197,-14.19667 5.12157,-13.92627 -0.59406,0.59407 -3.152,7.06183 -5.86919,13.37833 -2.71718,6.31649 -5.57952,12.48171 -5.57956,12.47068 -0.002,-0.45256 2.65258,-6.44557 4.91587,-12.20046 2.26328,-5.75488 4.15696,-11.27164 3.65702,-10.7717 -0.80122,0.80122 -2.84444,5.46236 -4.77486,9.85722 -1.94277,4.42298 -3.81447,8.66409 -3.81411,8.7659 -0.001,-0.35624 1.76106,-4.50334 3.30279,-8.46721 1.54173,-3.96387 2.87414,-7.7445 2.49742,-7.36778 -0.70029,0.70029 -2.11047,3.74713 -3.38148,6.69214 -1.271,2.94499 -2.43203,5.85794 -2.43051,6.29035 -9e-5,-0.0255 1.31558,-3.06457 2.43151,-5.96819 1.11469,-2.9004 2.04192,-5.67502 1.52242,-5.15552 -1.71086,1.71086 -3.96491,7.20024 -3.96479,7.23384 -0.003,-0.93884 1.60763,-4.87708 0.71183,-3.98127 -1.59011,1.59011 -1.09894,1.72256 -1.09894,1.72256 z"
         id="path117499"
         inkscape:path-effect="#path-effect117513"
         inkscape:original-d="m 123.92353,143.84146 v 37.57086 l 13.2833,-13.28333 -3e-5,-37.57083 z" />
      <path
         style="fill:none;stroke:#000000;stroke-width:0.5;stroke-linecap:butt;stroke-linejoin:miter;stroke-miterlimit:4;stroke-dasharray:none;stroke-opacity:1"
         d="m 86.35269,180.71679 c 0,0 0.2645,0.69553 0.85228,0.69553 1.053649,0 -0.350317,-2.31264 -0.350616,-2.26037 0.004,-0.69653 1.804111,2.26037 2.496535,2.26037 0.578575,0 -0.01191,-1.46753 -0.777706,-2.84845 -0.765487,-1.38036 -1.703077,-2.67576 -1.705061,-2.32874 1.81e-4,-0.0317 3.215895,5.17719 3.728227,5.17719 0.48853,0 -0.390282,-1.87475 -1.441128,-3.72716 -1.050847,-1.85241 -2.272528,-3.68249 -2.273039,-3.59314 0.0015,-0.26759 1.285426,1.56845 2.600553,3.46169 1.3172,1.89623 2.665954,3.85861 3.011131,3.85861 0.57754,-1e-5 -0.720983,-2.65033 -2.26342,-5.29965 -1.542438,-2.64931 -3.328713,-5.2976 -3.328736,-5.29353 0.002,-0.34478 1.913786,2.31744 3.75829,5.04323 1.849219,2.73274 3.633572,5.54994 3.824533,5.54994 0.423323,0 -1.320459,-3.26251 -3.32106,-6.45797 -2.0006,-3.19545 -4.251691,-6.32385 -4.253225,-6.0556 3.83e-4,-0.0669 2.176341,3.06146 4.281809,6.20659 2.105469,3.14512 4.138939,6.30698 4.417875,6.30698 0.5113,0 -1.465489,-3.72483 -3.76686,-7.38681 -2.301372,-3.66197 -4.92058,-7.26107 -4.922017,-7.00961 4.42e-4,-0.0774 2.552792,3.52172 4.986181,7.14017 2.433389,3.61845 4.745811,7.25625 5.012327,7.25625 0.49888,0 -1.750757,-4.17226 -4.371815,-8.33353 -2.621058,-4.16126 -5.612234,-8.31154 -5.612485,-8.26759 0.0016,-0.27778 3.085544,3.8725 5.993963,8.09223 2.908418,4.21972 5.632723,8.50889 5.939604,8.50889 0.539245,0 -2.107496,-4.86584 -5.224687,-9.66665 -3.117191,-4.80081 -6.695746,-9.5366 -6.697233,-9.27649 3.11e-4,-0.0544 3.494464,4.68138 6.705314,9.43077 3.21085,4.74938 6.136555,9.51237 6.281975,9.51237 0.377781,0 -2.499635,-5.11493 -5.842343,-10.14661 -3.342709,-5.03167 -7.138442,-9.98008 -7.140346,-9.64704 -1.2e-4,0.0211 3.648582,4.96949 7.020845,9.91263 3.372264,4.94315 6.468825,9.88102 6.747765,9.88102 0.5113,0 -2.507378,-5.46346 -6.076978,-10.86782 -3.569599,-5.40437 -7.680878,-10.74964 -7.682229,-10.51327 4.06e-4,-0.0709 4.041488,5.27432 7.717546,10.63733 3.676057,5.36301 6.984381,10.74376 7.154641,10.74376 0.40262,0 -2.847226,-5.75703 -6.667482,-11.43279 -3.820257,-5.67576 -8.197481,-11.27026 -8.199339,-10.94521 -1.18e-4,0.0206 4.228453,5.61507 8.056462,11.20443 3.828009,5.58935 7.256269,11.17357 7.424459,11.17357 0.40055,0 -2.969136,-5.95498 -6.941562,-11.82523 -3.972427,-5.87024 -8.533088,-11.65576 -8.535026,-11.31683 -2.09e-4,0.0366 4.39729,5.8221 8.375267,11.59847 3.977976,5.77636 7.537921,11.54359 7.750621,11.54359 0.44506,0 -3.04062,-6.19145 -7.18073,-12.37902 -4.140105,-6.18758 -8.933957,-12.37128 -8.934046,-12.35579 0.0016,-0.28247 4.913924,5.90123 9.330134,12.15555 4.416212,6.25432 8.323522,12.57926 8.555882,12.57926 0.46473,-1e-5 -3.35565,-6.76589 -7.940872,-13.5179 -4.585224,-6.75201 -9.932634,-13.49014 -9.932952,-13.43463 0.0014,-0.23656 5.431406,6.50157 10.272394,13.29884 4.84099,6.79727 9.08132,13.65368 9.3437,13.65368 0.49474,0 -3.65015,-7.32701 -8.679525,-14.57404 -5.029375,-7.24702 -10.926455,-14.41407 -10.928284,-14.09413 -1.84e-4,0.0322 5.732649,7.19929 10.80937,14.35827 5.076719,7.15898 9.498959,14.3099 9.778929,14.3099 0.51234,0 -3.80737,-7.63736 -9.081757,-15.23975 -5.274384,-7.6024 -11.495839,-15.16983 -11.496638,-15.02998 8.22e-4,-0.14384 6.224177,7.42359 11.677363,15.02698 5.453182,7.6034 10.128382,15.24275 10.324522,15.24275 0.4285,0 -4.16263,-8.01763 -9.77185,-15.97101 -5.609221,-7.95338 -12.221821,-15.84249 -12.223291,-15.58546 1.35e-4,-0.0235 6.49995,7.86559 12.172351,15.76059 5.6724,7.895 10.51607,15.79588 10.73911,15.79588 0.45541,0 -4.29583,-8.30772 -10.138991,-16.55616 -5.843164,-8.24845 -12.764196,-16.43761 -12.765552,-16.20051 2.32e-4,-0.0406 6.824996,8.14856 12.790451,16.34788 5.965452,8.19932 11.069232,16.40879 11.442362,16.40879 0.60548,0 -4.35987,-8.78864 -10.57115,-17.50305 -6.211273,-8.71442 -13.649839,-17.3546 -13.651536,-17.05771 -1.33e-4,0.0234 7.278199,8.66355 13.539726,17.2979 6.26153,8.63435 11.50768,17.26286 11.66552,17.26286 0.39021,0 -4.7748,-8.94908 -11.17211,-17.88982 -6.397309,-8.94073 -14.024806,-17.87312 -14.024997,-17.83973 0.0014,-0.23751 7.732358,8.69488 14.372757,17.68664 6.6404,8.99177 12.17487,18.04291 12.39481,18.04291 0.4523,0 -4.826,-9.19098 -11.46825,-18.38196 -6.642245,-9.19098 -14.648446,-18.38195 -14.864423,-18.38195 0.01639,0 7.922792,9.19097 14.712703,18.38195 6.78991,9.19098 12.46333,18.38196 12.80126,18.38196 0.57029,0 -4.64901,-9.19098 -11.22243,-18.38196 -6.573422,-9.19098 -14.500962,-18.38195 -14.559618,-18.38195 0.173708,0 8.158775,9.19097 14.995258,18.38195 6.83649,9.19098 12.52439,18.38196 12.89131,18.38196 0.59927,-10e-6 -4.60554,-9.19098 -11.19837,-18.38196 -6.592826,-9.19098 -14.573668,-18.38195 -14.73893,-18.38195 0.0671,0 7.998865,9.19097 14.75048,18.38195 6.75162,9.19098 12.32308,18.38195 12.45712,18.38195 0.3664,0 -4.95486,-9.19097 -11.61159,-18.38195 -6.65674,-9.19098 -14.648971,-18.38195 -14.837003,-18.38195 0.04433,0 7.96471,9.19097 14.708043,18.38195 6.74334,9.19098 12.30963,18.38195 12.43331,18.38195 0.35605,0 -4.97037,-9.19097 -11.63539,-18.38195 -6.66502,-9.19098 -14.668636,-18.38195 -14.879437,-18.38195 0.02156,0 7.930557,9.19097 14.682427,18.38195 6.75187,9.19098 12.34663,18.38195 12.52724,18.38195 0.41297,0 -4.88499,-9.19097 -11.51611,-18.38195 -6.63113,-9.19098 -14.595408,-18.38195 -14.727549,-18.38195 0.100222,0 8.048549,9.19097 14.839489,18.38195 6.79095,9.19098 12.42451,18.38195 12.68275,18.38195 0.4906,0 -4.76855,-9.19097 -11.36604,-18.38195 -6.59748,-9.19098 -14.533299,-18.38195 -14.608515,-18.38195 0.157148,0 8.133935,9.19097 14.910125,18.38195 6.7762,9.19097 12.35181,18.38195 12.49412,18.38195 0.37468,0 -4.94243,-9.19098 -11.57459,-18.38195 -6.63215,-9.19098 -14.579358,-18.38195 -14.677344,-18.38195 0.134377,0 8.138504,9.19097 14.912154,18.38195 6.80437,9.23265 12.31683,18.38195 12.31683,18.38195 0,0 -5.55454,-9.3492 -12.4954,-18.78541 -6.90885,-9.39271 -15.140031,-18.78542 -15.429318,-18.78542 -0.521649,0 7.168278,9.19098 13.852978,18.38195 6.68469,9.19098 12.36416,18.38196 12.60912,18.38196 0.0126,0 -5.5381,-9.19098 -12.36684,-18.38196 -6.82873,-9.19097 -14.935512,-18.38195 -15.247568,-18.38195 -0.54442,0 7.134118,9.19098 13.784148,18.38195 6.65002,9.19098 12.27153,18.38196 12.40057,18.38196 -0.10333,0 -5.71198,-9.19098 -12.55547,-18.38196 -6.84348,-9.19097 -14.921801,-18.38195 -15.176932,-18.38195 -0.487495,0 7.219512,9.19098 13.903172,18.38195 6.68366,9.19098 12.34399,18.38196 12.55065,18.38196 -0.0257,0 -5.59555,-9.19098 -12.39996,-18.38196 -6.80441,-9.19097 -14.843401,-18.38195 -15.019871,-18.38195 -0.408834,0 7.337502,9.19098 14.055061,18.38195 6.71756,9.19098 12.40634,18.38196 12.66993,18.38196 0.0312,0 -5.51015,-9.19098 -12.30603,-18.38196 -6.795873,-9.19097 -14.846246,-18.38195 -15.045487,-18.38195 -0.431603,0 7.303347,9.19098 14.012627,18.38195 6.70928,9.19098 12.39289,18.38196 12.64613,18.38196 0.0209,0 -5.52568,-9.19098 -12.32984,-18.38196 -6.804155,-9.19097 -14.865913,-18.38195 -15.087923,-18.38195 -0.454374,0 7.269191,9.19098 13.914563,18.38195 6.64536,9.19098 12.21253,18.38196 12.23289,18.38196 -0.212,0 -5.87499,-9.19098 -12.76402,-18.38196 -6.889023,-9.19097 -15.004084,-18.38195 -15.332701,-18.38195 -0.56098,0 7.109283,9.19098 13.735241,18.38196 6.62597,9.19097 12.20763,18.38195 12.25697,18.38195 -0.18303,0 -5.83153,-9.19098 -12.67398,-18.38195 -6.842451,-9.19098 -14.878851,-18.38196 -15.050147,-18.38196 -0.403658,0 7.345266,9.19098 14.040057,18.38196 6.69479,9.19097 12.33544,18.38195 12.50278,18.38195 -0.065,0 -5.63132,-9.14144 -12.36487,-18.17836 -6.733538,-9.03691 -14.606947,-17.9693 -14.606947,-17.55118 0,0.68902 7.310025,9.6214 13.592738,18.38154 6.282709,8.76013 11.579189,17.348 11.808619,17.348 -0.003,0 -5.27889,-8.71969 -11.63133,-17.39963 -6.352436,-8.67994 -13.771485,-17.32013 -13.771485,-17.16112 0,0.43255 7.121999,9.07274 13.217153,17.60479 6.095152,8.53205 11.188942,16.95596 11.203092,16.95596 -0.21821,0 -5.35015,-8.30204 -11.403959,-16.54765 -6.053805,-8.24561 -13.0161,-16.43478 -13.0161,-16.20901 0,0.50349 6.603666,8.69265 12.328595,16.75595 5.724924,8.06329 10.598984,16.00072 10.763204,16.00072 -0.0681,0 -4.9387,-7.99441 -10.697634,-15.93618 -5.758932,-7.94176 -12.394222,-15.83088 -12.394222,-15.62029 0,0.49116 6.29503,8.38028 11.784586,16.1466 5.48956,7.76633 10.19981,15.40987 10.39095,15.40987 -0.0412,0 -4.74241,-7.73393 -10.280448,-15.3846 -5.538033,-7.65068 -11.894477,-15.21811 -11.894477,-14.88514 0,0.61668 5.903003,8.18411 11.056277,15.59738 5.153278,7.41326 9.587858,14.67236 9.695158,14.67236 -0.12506,0 -4.57115,-7.24682 -9.729994,-14.45374 -5.158839,-7.20693 -11.022189,-14.37398 -11.022189,-14.21444 0,0.44722 5.579219,7.61426 10.485506,14.6695 4.906287,7.05524 9.161287,13.99868 9.286177,13.99868 -0.10746,0 -4.37081,-6.95377 -9.291878,-13.79972 -4.921069,-6.84595 -10.478282,-13.58408 -10.478282,-13.1528 0,0.63905 5.085252,7.54579 9.488219,14.01878 4.460311,6.55729 8.384771,12.93374 8.539681,12.93374 -0.0774,0 -4.00579,-6.42426 -8.498861,-12.72824 -4.493067,-6.30398 -9.528554,-12.48768 -9.528554,-12.00657 0,0.70509 4.523434,7.03677 8.486532,12.95171 4.012672,5.98894 7.595063,11.7831 7.769633,11.7831 -0.0578,0 -3.636257,-5.868 -7.688081,-11.69476 -4.051824,-5.82676 -8.570091,-11.61227 -8.570091,-11.4473 0,0.46731 4.242268,6.25282 8.085219,11.92151 3.842952,5.66869 7.304583,11.22055 7.523663,11.22055 -0.0133,0 -3.459408,-5.68571 -7.360151,-11.32581 -3.900743,-5.6401 -8.248696,-11.2346 -8.248696,-11.05219 0,0.4869 4.058726,6.0814 7.748649,11.55417 3.689923,5.47278 7.029078,10.82383 7.246088,10.82383 -0.0153,0 -3.340896,-5.48319 -7.088372,-10.89742 -3.747477,-5.41423 -7.906032,-10.7595 -7.906032,-10.48366 0,0.52845 3.828459,5.98314 7.230485,11.12791 3.438204,5.19948 6.542609,10.25317 6.650939,10.25317 -0.12402,0 -3.236076,-5.04186 -6.677192,-10.037 -3.441117,-4.99513 -7.204561,-9.94354 -7.204561,-9.75664 0,0.45283 3.507919,5.49331 6.686747,10.27097 3.209456,4.82369 6.167241,9.52267 6.409093,9.52267 0.0095,0 -2.931178,-4.86782 -6.209753,-9.66962 -3.278574,-4.8018 -6.885825,-9.53759 -6.885825,-9.27352 0,0.53407 3.288677,5.35889 6.242797,9.90551 2.983046,4.59114 5.707022,9.03763 5.787412,9.03763 -0.151972,0 -2.889869,-4.39641 -5.862933,-8.66976 -2.960908,-4.25587 -6.165535,-8.4411 -6.165535,-7.93135 0,0.77554 2.695565,5.00273 5.155866,8.91106 2.484508,3.94678 4.80258,7.69006 4.923336,7.69006 -0.111608,0 -2.435098,-3.74742 -4.929406,-7.42068 -2.494307,-3.67326 -5.151401,-7.27237 -5.151401,-6.97575 0,0.59713 2.31872,4.2529 4.463169,7.66731 2.162243,3.44274 4.19967,6.72912 4.308006,6.72912 -0.124027,0 -2.166959,-3.27359 -4.330478,-6.47458 -2.163518,-3.20099 -4.44074,-6.32938 -4.44074,-6.039 0,0.60349 1.947141,3.77601 3.792767,6.72595 1.85943,2.97201 3.65674,5.78763 3.853052,5.78763 -0.03605,0 -1.829164,-2.93116 -3.734074,-5.72089 -1.90219,-2.78575 -3.909305,-5.44201 -3.909305,-4.87229 0,0.88886 1.478323,3.57467 2.866972,5.9773 1.399491,2.42139 2.743644,4.61588 2.78574,4.61588 -0.190268,0 -1.545007,-2.08036 -2.912777,-4.03558 -1.367228,-1.95444 -2.740753,-3.78607 -2.740753,-3.28471 0,1.70907 3.493801,7.32029 3.756013,7.32029 -0.202514,0 -3.757822,-5.69204 -3.757822,-5.17719 0,1.23953 2.430241,5.17719 2.512362,5.17719 -0.382606,0 -2.509456,-3.4561 -2.509456,-2.26036 0,1.94453 0.177916,2.26036 0.363537,2.26036 -0.279075,0 -0.366708,0.1114 -0.366708,0.1114 z m 37.57084,0.13037 c 0,0 -5.27247,-9.00964 -11.78252,-18.09939 -6.48136,-9.04969 -14.142933,-18.09938 -14.222289,-18.09938 0.153008,0 7.729319,8.7336 14.187009,17.38014 6.45768,8.64655 11.8185,17.20605 11.8185,16.85786 0,-0.72493 -5.11255,-9.28443 -11.25653,-17.6627 -6.14398,-8.37827 -13.278226,-16.5753 -13.437277,-16.5753 0.07331,0 7.211127,8.26792 13.362277,16.47021 6.15114,8.20228 11.33111,16.33893 11.33111,16.07638 0,-0.6321 -4.96426,-8.76875 -10.84241,-16.74737 -5.87815,-7.97863 -12.63587,-15.79922 -12.69246,-15.79922 0.17578,0 6.89786,7.72879 12.73052,15.31925 5.83265,7.59047 10.80674,15.04261 10.80674,14.48932 0,-1.00799 -4.52606,-8.26774 -9.97802,-15.58813 -5.38033,-7.2242 -11.49956,-14.22044 -11.6907,-14.22044 0.0412,0 6.16735,7.11275 11.56721,14.08924 5.39985,6.97648 10.10144,13.81669 10.10144,13.27159 0,-0.97597 -4.25044,-7.65275 -9.2543,-14.35111 -4.9428,-6.61664 -10.47784,-13.00972 -10.5396,-13.00972 0.1706,0 5.67722,6.31561 10.57687,12.49639 4.89966,6.18078 9.21701,12.22674 9.21701,11.68743 0,-0.94127 -3.85896,-6.85874 -8.31271,-12.74969 -4.40518,-5.82669 -9.27453,-11.43413 -9.35802,-11.43413 0.14886,0 4.99965,5.56333 9.3753,11.01213 4.37564,5.44879 8.29457,10.78303 8.29457,10.32485 0,-0.83536 -3.50049,-6.07146 -7.50838,-11.25821 -3.96996,-5.13767 -8.34505,-10.07877 -8.58897,-10.07877 -0.0116,0 4.38044,5.12143 8.40408,10.15098 4.02364,5.02954 7.69251,9.96719 7.69251,9.59961 0,-0.73245 -3.30346,-5.58633 -6.99751,-10.39322 -3.66186,-4.76501 -7.62833,-9.35737 -7.65697,-9.35737 0.20373,0 4.1475,4.47424 7.75713,8.85293 3.60963,4.37869 6.89748,8.66184 6.89748,8.27966 0,-0.72887 -2.9068,-4.94839 -6.14639,-9.08909 -3.2147,-4.10888 -6.69384,-8.0435 -6.8798,-8.0435 0.0464,0 3.53092,4.02985 6.77392,7.99938 3.24299,3.96954 6.25145,7.87875 6.25145,7.63748 0,-0.57759 -2.71973,-4.43501 -5.68246,-8.2322 -2.94253,-3.77129 -6.07399,-7.40466 -6.08503,-7.40466 0.22132,0 3.33295,3.49564 6.21682,6.86837 2.89022,3.38015 5.55256,6.61508 5.55256,6.13081 0,-0.81465 -2.19809,-4.02425 -4.56193,-7.09551 -2.34836,-3.05116 -4.81657,-5.90367 -4.84211,-5.90367 0.20683,0 2.66157,2.73821 4.95875,5.38485 2.30128,2.65136 4.44415,5.19699 4.44415,4.83542 0,-0.67366 -1.75714,-3.20455 -3.67721,-5.60632 -1.91041,-2.38967 -3.95478,-4.61395 -4.21527,-4.61395 -0.0281,0 2.02483,2.40739 4.0032,4.70815 1.98058,2.30332 3.8898,4.49235 3.8898,4.06839 0,-0.72772 -1.47118,-2.90242 -3.0125,-4.92677 -1.53392,-2.01464 -3.11476,-3.84977 -3.11753,-3.84977 0.2296,0 1.80092,1.69644 3.27465,3.2807 1.47381,1.58434 2.85562,3.05624 2.85562,2.60757 0,-1.46588 -3.7387,-5.88827 -3.92846,-5.88827 0.27497,0 3.9281,4.32542 3.9281,3.50561 0,-1.37671 -1.82012,-3.50561 -1.84842,-3.50561 0.43643,0 1.84841,1.65162 1.84841,0.84024 0,-1.35595 -0.87778,-1.64717 -0.87778,-1.64717 0,0 0.1874,0.93648 0.18685,0.84024 0.003,0.44834 -1.10697,-0.84024 -1.85321,-0.84024 -1.21097,0 1.86908,3.61394 1.86846,3.50561 0.003,0.44856 -3.36336,-3.50561 -3.94814,-3.50561 -1.04951,0 3.9624,5.93808 3.96211,5.88828 0.001,0.25808 -1.31225,-1.21158 -2.75784,-2.74967 -1.44446,-1.5369 -3.02158,-3.13861 -3.40608,-3.13861 -0.61687,0 0.99817,2.22378 2.69728,4.43274 1.69912,2.20897 3.48325,4.4031 3.48291,4.3438 0.001,0.22803 -1.84491,-1.95778 -3.80197,-4.21413 -1.95345,-2.25218 -4.0144,-4.56241 -4.14119,-4.56241 -0.35915,0 1.72541,2.61798 3.80251,5.20451 2.0771,2.58652 4.14911,5.14159 4.14839,5.01576 9.7e-4,0.16944 -2.08726,-2.38562 -4.36159,-4.98305 -2.27433,-2.59743 -4.738,-5.23722 -5.09973,-5.23722 -0.5941,0 1.92569,3.25632 4.44374,6.50938 2.51806,3.25305 5.03468,6.50285 5.03461,6.4898 0.002,0.28981 -2.61345,-2.95999 -5.47896,-6.28224 -2.8655,-3.32224 -5.98851,-6.71694 -6.36473,-6.71694 -0.60859,0 2.58627,4.04725 5.70102,8.02549 3.11475,3.97823 6.15743,7.88745 6.15585,7.61137 2e-4,0.0343 -2.96013,-3.87488 -6.1883,-7.79268 -3.22817,-3.9178 -6.72514,-7.84418 -6.92645,-7.84418 -0.43368,0 3.11525,4.35444 6.50379,8.67324 3.38855,4.3188 6.62115,8.60194 6.62033,8.45935 9.9e-4,0.17227 -3.24147,-4.11088 -6.83884,-8.43709 -3.59738,-4.32622 -7.55507,-8.6955 -7.9137,-8.6955 -0.591,0 3.45721,5.02301 7.29551,10.00334 3.83831,4.98033 7.47284,9.91798 7.47187,9.74725 8.7e-4,0.15226 -3.62781,-4.78539 -7.6432,-9.7611 -4.01539,-4.97571 -8.42294,-9.98949 -8.56629,-9.98949 -0.37572,0 4.08838,5.37858 8.23642,10.735 4.14804,5.35641 7.98341,10.69066 7.9829,10.60199 0.001,0.23944 -3.88043,-5.09481 -8.25045,-10.48892 -4.37002,-5.3941 -9.23762,-10.84807 -9.5414,-10.84807 -0.53614,0 4.43586,6.05774 9.02192,12.10959 4.58606,6.05186 8.7872,12.09781 8.78706,12.07424 0.002,0.31415 -4.28407,-5.73181 -9.18268,-11.8563 -4.89861,-6.1245 -10.42393,-12.32753 -10.74945,-12.32753 -0.55787,0 5.09586,6.85861 10.22251,13.70803 5.12666,6.84941 9.72802,13.68961 9.72781,13.6528 0.002,0.31234 -4.67489,-6.52787 -10.07865,-13.44616 -5.40377,-6.91829 -11.55028,-13.91467 -11.74641,-13.91467 -0.4285,0 5.82233,7.47424 11.38871,14.93742 5.56638,7.46319 10.45066,14.91534 10.4504,14.87115 0.002,0.3143 -4.95251,-7.13784 -10.79292,-14.66856 -5.84041,-7.53072 -12.58404,-15.14001 -12.91473,-15.14001 -0.56305,0 6.34179,8.31333 12.40802,16.53832 6.06624,8.22499 11.31491,16.36164 11.31289,16.00828 1e-4,0.0162 -5.16645,-8.12047 -11.32904,-16.26116 -6.1626,-8.1407 -13.32217,-16.28544 -13.55039,-16.28544 -0.460585,0 6.83029,8.69934 13.16387,17.32876 6.33359,8.62942 11.72726,17.18892 11.72566,16.90924 5.6e-4,0.097 -5.3504,-8.46245 -11.82239,-17.04622 -6.47198,-8.58376 -14.070926,-17.19178 -14.378842,-17.19178 -0.54028,0 7.347532,9.25142 14.157742,18.50285 6.84128,9.29364 12.5428,18.50285 12.5428,18.50285 z"
         id="path117501"
         inkscape:path-effect="#path-effect117517"
         inkscape:original-d="m 86.35269,143.84146 v 37.57086 l 37.57084,-3e-5 v -37.57083 z" />
    </g>
  </g>
</svg>
