<?xml version="1.0" encoding="UTF-8" standalone="no"?>
<!-- Created with Inkscape (http://www.inkscape.org/) -->

<svg
   width="210mm"
   height="297mm"
   viewBox="0 0 210 297"
   version="1.1"
   id="svg5"
   inkscape:version="1.1.2 (b8e25be833, 2022-02-05)"
   sodipodi:docname="vespers_logo.svg"
   xmlns:inkscape="http://www.inkscape.org/namespaces/inkscape"
   xmlns:sodipodi="http://sodipodi.sourceforge.net/DTD/sodipodi-0.dtd"
   xmlns="http://www.w3.org/2000/svg"
   xmlns:svg="http://www.w3.org/2000/svg">
  <sodipodi:namedview
     id="namedview7"
     pagecolor="#505050"
     bordercolor="#eeeeee"
     borderopacity="1"
     inkscape:pageshadow="0"
     inkscape:pageopacity="0"
     inkscape:pagecheckerboard="0"
     inkscape:document-units="mm"
     showgrid="false"
     inkscape:zoom="3.5981498"
     inkscape:cx="570.43207"
     inkscape:cy="328.08529"
     inkscape:window-width="1920"
     inkscape:window-height="991"
     inkscape:window-x="-9"
     inkscape:window-y="-9"
     inkscape:window-maximized="1"
     inkscape:current-layer="layer1" />
  <defs
     id="defs2" />
  <g
     inkscape:label="Layer 1"
     inkscape:groupmode="layer"
     id="layer1">
    <path
       style="fill:#5d3625;fill-opacity:1;stroke-width:0.4;stroke-dasharray:2.4, 2.4;stroke-dashoffset:1.2"
       d="M 114.08047,64.535521 V 105.6126 h 82.04926 V 64.535521 Z"
       id="rect5854" />
    <path
       style="fill:#ffffff;fill-opacity:1;stroke-width:0.4;stroke-dasharray:2.4, 2.4;stroke-dashoffset:1.2"
       d="m 135.38487,79.507785 c -1.03535,-7.93e-4 -1.81818,0.02894 -2.59209,0.492477 -0.5693,0.340987 -0.80989,1.05908 -1.11879,1.646412 -0.19708,0.374727 -0.46047,1.181791 -0.46096,1.183389 v 0.0021 l -2.57813,8.423774 h 40.73601 0.0155 l 0.016,0.002 c 0,0 0.51255,0.0439 1.14825,0 0.63571,-0.0439 1.38117,-0.19656 1.78129,-0.49247 0.38382,-0.283863 0.75879,-0.98761 0.99219,-1.621088 0.23339,-0.633479 0.34571,-1.179256 0.34571,-1.179256 l 0.002,-0.0098 2.33784,-8.445479 h -40.61138 z"
       id="path37390" />
    <path
       style="color:#000000;fill:#e2091a;stroke-dashoffset:4.53543;-inkscape-stroke:none"
       d="m 130.54323,81.355469 c -0.31175,0.682069 -0.49414,1.267578 -0.49414,1.267578 v 0.002 l -2.85547,9.330078 43.68512,-0.02301 c 0.96197,-5.07e-4 1.8017,-0.150122 2.41527,-0.603896 0.61664,-0.456056 0.96196,-1.262497 1.2935,-2.238721 0.23104,-0.680315 2.88828,-10.280813 2.88828,-10.280813 l -43.17837,0.02397 c -0.96108,5.34e-4 -1.80078,0.149124 -2.41065,0.600157 -0.60986,0.451034 -1.03179,1.240587 -1.34354,1.922657 z m 4.84157,-1.847612 0.0137,0.002 h 40.61133 l -2.3379,8.445312 -0.002,0.0098 c 0,0 -0.11231,0.546208 -0.3457,1.179687 -0.2334,0.63348 -0.60837,1.33723 -0.99219,1.621094 -0.40012,0.295915 -1.14554,0.448253 -1.78125,0.492187 -0.6357,0.04394 -1.14844,10e-7 -1.14844,0 l -0.0156,-0.002 h -0.0156 -40.73625 l 2.57813,-8.423828 v -0.002 c 4.9e-4,-0.0016 0.26386,-0.808866 0.46094,-1.183594 0.3089,-0.587332 0.54984,-1.305496 1.11914,-1.646484 0.77391,-0.46354 1.55634,-0.492904 2.59169,-0.492174 z"
       id="path31291"
       sodipodi:nodetypes="scccssscscsccccsssccccccascc" />
    <g
       id="g28182"
       transform="translate(7.9553572,-2.5477941)">
      <text
         xml:space="preserve"
         style="font-weight:300;font-size:14.1111px;font-family:'FiraCode Nerd Font Mono';-inkscape-font-specification:'FiraCode Nerd Font Mono Light';fill:#ffffff;fill-opacity:1;stroke:#2d2f7c;stroke-width:0.2;stroke-miterlimit:4;stroke-dasharray:none;stroke-dashoffset:1.2;stroke-opacity:1"
         x="123.04175"
         y="93.384453"
         id="text19160"><tspan
           sodipodi:role="line"
           id="tspan19158"
           style="font-style:normal;font-variant:normal;font-weight:normal;font-stretch:normal;font-family:Snickers;-inkscape-font-specification:Snickers;fill:#ffffff;fill-opacity:1;stroke:#2d2f7c;stroke-width:0.2;stroke-miterlimit:4;stroke-dasharray:none;stroke-opacity:1"
           x="123.04175"
           y="93.384453">VESPERS</tspan></text>
      <path
         id="path19238"
         style="color:#000000;font-weight:300;font-size:14.1111px;font-family:'FiraCode Nerd Font Mono';-inkscape-font-specification:Snickers;fill:#2d2f7c;fill-opacity:1;stroke:none;stroke-width:0.2;stroke-dashoffset:1.2;-inkscape-stroke:none"
         d="m 140.62923,82.690101 c -0.75931,0.008 -1.36159,0.10566 -1.80247,0.29455 -0.31045,0.17875 -0.53131,0.35765 -0.66301,0.5364 -0.047,0.0753 -0.14105,0.28197 -0.28216,0.62064 l -0.5364,1.79214 c -0.10348,0.20696 -0.15503,0.45158 -0.15503,0.7338 0,0.52682 0.1501,0.92206 0.45114,1.18546 l 1.38286,1.22784 c 0.0753,0.0659 0.11317,0.24426 0.11317,0.53588 0,0.45156 -0.0798,0.93171 -0.23978,1.43971 -0.15993,0.49859 -0.39039,0.74775 -0.69143,0.74775 -0.0393,0 -0.074,-0.005 -0.10645,-0.0129 -0.0369,0.009 -0.0749,0.0129 -0.11421,0.0129 -0.22577,0 -0.33848,-0.12738 -0.33848,-0.38137 0,-0.1129 0.0232,-0.23974 0.0703,-0.38085 l 0.59273,-1.96112 h -1.9668 l -1.18546,3.88038 c 0.71061,0.23387 1.52571,0.35457 2.44275,0.36484 1.1002,-0.0104 1.94505,-0.19661 2.53007,-0.56224 0.2446,-0.17875 0.46091,-0.51282 0.64906,-1.00201 0.0188,-0.0282 0.14567,-0.4093 0.38086,-1.14308 0.19755,-0.60207 0.29662,-1.12417 0.29662,-1.56632 0,-0.45156 -0.11322,-0.78109 -0.339,-0.98805 L 139.82,86.935831 c -0.30104,-0.2634 -0.45165,-0.59294 -0.45165,-0.98805 0,-0.23518 0.0521,-0.52175 0.15554,-0.86041 0.10348,-0.33867 0.20658,-0.55044 0.31006,-0.6351 0.0564,-0.047 0.18836,-0.0708 0.39533,-0.0708 0.0215,0 0.0407,0.003 0.0589,0.008 0.0479,-0.004 0.10021,-0.007 0.16123,-0.007 0.14111,-2e-5 0.21187,0.094 0.21187,0.28215 0,0.11289 -0.0232,0.25844 -0.0703,0.43718 l -0.48007,1.56631 h 1.98076 l 1.12913,-3.68298 c -0.86382,-0.18896 -1.72776,-0.28635 -2.59158,-0.29455 z m 23.57944,0 c -0.75927,0.008 -1.36108,0.10566 -1.80196,0.29455 -0.31045,0.17875 -0.53181,0.35765 -0.66352,0.5364 -0.047,0.0753 -0.14105,0.28197 -0.28216,0.62064 l -0.5364,1.79214 c -0.10348,0.20696 -0.15503,0.45158 -0.15503,0.7338 0,0.52682 0.15062,0.92206 0.45165,1.18546 l 1.38287,1.22784 c 0.0753,0.0659 0.11265,0.24426 0.11265,0.53588 0,0.45156 -0.0798,0.93171 -0.23978,1.43971 -0.15993,0.49859 -0.3904,0.74775 -0.69143,0.74775 -0.039,0 -0.0737,-0.005 -0.10594,-0.0124 -0.0369,0.008 -0.0749,0.0124 -0.1142,0.0124 -0.22578,0 -0.339,-0.12738 -0.339,-0.38137 0,-0.1129 0.0238,-0.23974 0.0708,-0.38085 l 0.59273,-1.96112 h -1.9668 l -1.18546,3.88038 c 0.71061,0.23387 1.52571,0.35457 2.44274,0.36484 1.09995,-0.0104 1.94462,-0.19667 2.52956,-0.56224 0.24459,-0.17875 0.46092,-0.51282 0.64906,-1.00201 0.0188,-0.0282 0.14619,-0.4093 0.38137,-1.14308 h -5.2e-4 c 0.19756,-0.60207 0.29663,-1.12417 0.29663,-1.56632 0,-0.45156 -0.1127,-0.78109 -0.33849,-0.98805 l -1.29862,-1.12862 c -0.30103,-0.2634 -0.45114,-0.59294 -0.45114,-0.98805 0,-0.23518 0.0515,-0.52174 0.15503,-0.86041 0.10348,-0.33867 0.2071,-0.55044 0.31058,-0.6351 0.0564,-0.047 0.18785,-0.0708 0.39481,-0.0708 0.0215,0 0.0407,0.003 0.0589,0.008 0.0481,-0.004 0.10054,-0.007 0.16174,-0.007 0.14112,-2e-5 0.21136,0.094 0.21136,0.28215 0,0.11289 -0.0233,0.25844 -0.0703,0.43718 l -0.47956,1.56631 h 1.98076 l 1.12861,-3.68298 c -0.86381,-0.18896 -1.72774,-0.28635 -2.59157,-0.29455 z m -38.97075,0.0971 -0.69143,10.38542 h 2.06551 l 5.65857,-10.38542 h -2.07946 l -3.03392,5.58778 0.0315,-0.46457 -0.25219,0.46457 0.38086,-5.58778 z m 7.97264,0 -3.175,10.38542 h 4.0411 l 0.50798,-1.6366 h -1.65623 -0.22066 l 0.88935,-2.87889 h 0.22014 1.28985 l 0.49351,-1.62265 h -1.28933 -0.22014 l 0.80408,-2.62464 h 0.22066 1.64176 l 0.49403,-1.62264 z m 11.28872,0 -3.175,10.38542 h 2.09393 l 1.38286,-4.52944 c 0.0746,0.007 0.14528,0.0125 0.21549,0.017 l 0.005,-0.017 c 0.14373,0.0144 0.27638,0.0219 0.40359,0.0253 1.56927,-0.0339 2.59918,-0.84528 3.08715,-2.4381 l 0.28216,-0.9741 c 0.16933,-0.52682 0.25424,-0.94075 0.25424,-1.24179 0,-0.46096 -0.18852,-0.78037 -0.56482,-0.95911 -0.36689,-0.17874 -0.99714,-0.2682 -1.89084,-0.2682 z m 5.84202,0 -3.175,10.38542 h 4.04161 l 0.50798,-1.6366 h -1.65674 -0.22015 l 0.88884,-2.87889 h 0.22066 1.28932 l 0.49403,-1.62265 h -1.28984 -0.22015 l 0.80409,-2.62464 h 0.22066 1.64228 l 0.4935,-1.62264 z m 5.05189,0 -3.175,10.38542 h 2.09393 l 1.38286,-4.52944 c 0.0813,0 0.15216,0.008 0.21445,0.0212 l 0.006,-0.0212 c 0.34808,0 0.52194,0.12231 0.52194,0.3669 0,0.0564 -0.01,0.1176 -0.0284,0.18345 l -0.93121,3.03392 c -0.10342,0.34788 -0.11294,0.66307 -0.0284,0.94517 h 2.16472 c -0.0941,-0.42333 -0.10823,-0.73821 -0.0424,-0.94517 l 0.90279,-2.96364 c 0.0188,-0.15051 0.0284,-0.29152 0.0284,-0.42323 0,-0.5174 -0.15516,-0.87928 -0.4656,-1.08624 0.59266,0.0188 1.04905,-0.48913 1.36891,-1.52394 0.33866,-1.08185 0.52213,-1.68886 0.55035,-1.82056 0.0565,-0.21637 0.0842,-0.41854 0.0842,-0.60668 0,-0.67734 -0.34317,-1.01596 -1.02991,-1.01596 z m -9.22321,1.39681 c 0.0798,0.005 0.14935,0.0168 0.2098,0.0357 l 0.0108,-0.0357 c 0.32927,0.0188 0.49351,0.15982 0.49351,0.42323 0,0.0564 -0.009,0.12266 -0.0279,0.19792 l -0.48007,1.56631 c -0.14111,0.46096 -0.42767,0.68183 -0.86041,0.66301 l 0.004,-0.0139 c -0.07,0.0129 -0.14482,0.0174 -0.2248,0.0139 z m 10.89391,0 c 0.0796,0.005 0.14898,0.0168 0.20928,0.0357 l 0.0109,-0.0357 c 0.32926,0.0188 0.49403,0.15982 0.49403,0.42323 0,0.0564 -0.01,0.12266 -0.0284,0.19792 l -0.47956,1.56631 c -0.14111,0.46096 -0.42819,0.68183 -0.86093,0.66301 l 0.004,-0.0139 c -0.0699,0.0128 -0.14449,0.0174 -0.22427,0.0139 z" />
    </g>
    <path
       style="color:#000000;opacity:0.513711;fill:#00ff00;stroke-dashoffset:4.53543;-inkscape-stroke:none"
       d="m 133.03939,114.32762 c -0.9871,0.7303 -1.68415,2.97106 -1.68415,2.97106 l -2.68034,8.7626 h 44.24219 l 3.75391,-12.28516 h -40.50597 c 0,0 -2.12551,-0.18845 -3.12564,0.5515 z"
       id="path29277"
       sodipodi:nodetypes="scccccs" />
    <path
       style="color:#000000;opacity:0.513711;fill:#00ff00;stroke-dashoffset:4.53543;-inkscape-stroke:none"
       d="m 95.68068,101.49096 -3.75784,12.28516 h 44.24219 l 3.75391,-12.28516 z"
       id="path30366"
       sodipodi:nodetypes="ccccc" />
    <path
       d="m 208.2194,118.33332 c 0.9871,-0.73031 1.68415,-2.97106 1.68415,-2.97106 l 2.68034,-8.7626 -47.9961,12.28516 h 40.50597 c 0,0 2.12551,0.18844 3.12564,-0.5515 z"
       style="color:#000000;opacity:1;fill:none;stroke:#ff0000;stroke-width:0.365;stroke-miterlimit:4;stroke-dasharray:none;stroke-dashoffset:4.53543"
       id="path32262"
       sodipodi:nodetypes="sccccs" />
    <path
       style="opacity:1;fill:none;fill-opacity:1;stroke:#ff0000;stroke-width:0.77523;stroke-linejoin:miter;stroke-miterlimit:4;stroke-dasharray:none;stroke-dashoffset:4.53543;stroke-opacity:1"
       d="m 179.97605,95.285096 5.29323,-17.314153"
       id="path33522" />
    <path
       d="m 129.76828,74.603311 c 0,0 2.15431,0.190928 3.168,-0.558761 1.00047,-0.739921 1.70696,-3.010172 1.70696,-3.010172 l 2.71666,-8.877964 H 96.305088 c 0,0 -2.1543,-0.190928 -3.16799,0.558761 -1.00047,0.73992 -1.70697,3.010171 -1.70697,3.010171 l -2.71666,8.877965 z"
       style="color:#000000;opacity:1;fill:none;stroke:#ff0000;stroke-width:0.5;stroke-miterlimit:4;stroke-dasharray:none;stroke-dashoffset:4.53543"
       id="path33781"
       sodipodi:nodetypes="cscccsccc" />
    <path
       d="m 179.77116,68.41581 c 0,0 2.15431,0.190928 3.168,-0.558761 1.00047,-0.739921 1.47298,-3.010172 1.47298,-3.010172 l 2.45668,-8.877964 h -41.05481 c 0,0 -2.1543,-0.190928 -3.16799,0.558761 -1.00047,0.73992 -1.70697,3.010171 -1.70697,3.010171 l -2.71666,8.877965 z"
       style="color:#000000;opacity:1;fill:none;stroke:#e2091a;stroke-width:0.7;stroke-miterlimit:4;stroke-dasharray:none;stroke-dashoffset:4.53543;stroke-opacity:1"
       id="path35918"
       sodipodi:nodetypes="cscccsccc" />
    <path
       style="color:#000000;fill:#e2091a;stroke-dashoffset:4.53543;-inkscape-stroke:none"
       d="m 164.36849,59.001387 c -0.31175,0.682069 -0.49414,1.267578 -0.49414,1.267578 v 0.002 l -2.85547,9.330078 43.68512,-0.02301 c 0.96197,-5.07e-4 1.8017,-0.150122 2.41527,-0.603896 0.61664,-0.456056 0.96196,-1.262497 1.2935,-2.238721 0.23104,-0.680315 2.88828,-10.280813 2.88828,-10.280813 l -43.17837,0.02397 c -0.96108,5.34e-4 -1.80078,0.149124 -2.41065,0.600157 -0.60986,0.451034 -1.03179,1.240587 -1.34354,1.922657 z m 4.84157,-1.847612 0.0137,0.002 h 40.61133 l -2.3379,8.445312 -0.002,0.0098 c 0,0 -0.11231,0.546208 -0.3457,1.179687 -0.2334,0.63348 -0.60837,1.33723 -0.99219,1.621094 -0.40012,0.295915 -1.14554,0.448253 -1.78125,0.492187 -0.6357,0.04394 -1.14844,1e-6 -1.14844,0 l -0.0156,-0.002 h -0.0156 -40.73625 l 2.57813,-8.423828 v -0.002 c 4.9e-4,-0.0016 0.26386,-0.808866 0.46094,-1.183594 0.3089,-0.587332 0.54984,-1.305496 1.11914,-1.646484 0.77391,-0.46354 1.55634,-0.492904 2.59169,-0.492174 z"
       id="path37381"
       sodipodi:nodetypes="scccssscscsccccsssccccccascc" />
  </g>
</svg>
